<svg width="126" height="35" viewBox="0 0 126 35" fill="none" xmlns="http://www.w3.org/2000/svg">
    <g filter="url(#filter0_i_10_24)">
        <path fill-rule="evenodd" clip-rule="evenodd" d="M32 16C32 24.8366 24.8366 32 16 32C8.92014 32 2.91429 27.4016 0.806181 21.0286C0.406022 19.8189 1.38207 18.6667 2.65626 18.6667V18.6667C3.61859 18.6667 4.43514 19.3411 4.77533 20.2413C6.48887 24.7756 10.87 28 16.0043 28C22.6317 28 28.0043 22.6274 28.0043 16C28.0043 9.37258 22.6317 4 16.0043 4C10.87 4 6.48887 7.2244 4.77533 11.7587C4.43514 12.6589 3.61859 13.3333 2.65626 13.3333V13.3333C1.38207 13.3333 0.406022 12.1811 0.80618 10.9714C2.91429 4.59839 8.92014 0 16 0C24.8366 0 32 7.16344 32 16ZM0.00427083 15.6266C0.00142877 15.7507 0 15.8752 0 16C0 16.1248 0.00142877 16.2493 0.00427083 16.3734V15.6266ZM22.6709 16C22.6709 19.6819 19.6862 22.6667 16.0043 22.6667C12.3224 22.6667 9.3376 19.6819 9.3376 16C9.3376 12.3181 12.3224 9.33333 16.0043 9.33333C19.6862 9.33333 22.6709 12.3181 22.6709 16ZM16.0044 18.6667C17.4771 18.6667 18.671 17.4728 18.671 16C18.671 14.5272 17.4771 13.3333 16.0044 13.3333C14.5316 13.3333 13.3377 14.5272 13.3377 16C13.3377 17.4728 14.5316 18.6667 16.0044 18.6667Z" fill="url(#paint0_linear_10_24)"/>
    </g>
    <path d="M41.0306 26.9969C41.0306 26.4083 41.14 25.8354 41.3588 25.2781C41.5775 24.7208 41.9004 24.2287 42.3275 23.8016C42.7077 23.4318 43.1452 23.1453 43.64 22.9422C44.1348 22.7391 44.6478 22.6375 45.1791 22.6375C45.7207 22.6375 46.2025 22.7521 46.6244 22.9813C47.0463 23.2104 47.4239 23.5203 47.7572 23.9109V20.6219C47.7572 20.4083 47.8327 20.2261 47.9838 20.075C48.14 19.9188 48.3249 19.8406 48.5385 19.8406C48.752 19.8406 48.9343 19.9188 49.0853 20.075C49.2416 20.2261 49.3197 20.4083 49.3197 20.6219V30.5984C49.3197 30.812 49.2416 30.9969 49.0853 31.1531C48.9343 31.3042 48.752 31.3797 48.5385 31.3797C48.3249 31.3797 48.1635 31.3042 48.0541 31.1531C47.9499 30.9969 47.8822 30.812 47.851 30.5984L47.7572 29.9656C47.4603 30.3927 47.0671 30.7287 46.5775 30.9734C46.0931 31.2182 45.6088 31.3406 45.1244 31.3406C44.5358 31.3406 43.9916 31.2234 43.4916 30.9891C42.9968 30.7547 42.5645 30.437 42.1947 30.0359C41.8249 29.6297 41.5385 29.1662 41.3353 28.6453C41.1322 28.1245 41.0306 27.575 41.0306 26.9969ZM45.1088 29.7781C45.4473 29.7781 45.7832 29.7026 46.1166 29.5516C46.4499 29.4005 46.7338 29.1974 46.9681 28.9422C47.2025 28.6818 47.3822 28.3771 47.5072 28.0281C47.6374 27.6792 47.7025 27.3224 47.7025 26.9578C47.7025 26.4578 47.5931 25.9969 47.3744 25.575C47.1556 25.1531 46.8536 24.8146 46.4681 24.5594C46.0879 24.3042 45.6478 24.1766 45.1478 24.1766C44.6582 24.1766 44.2181 24.312 43.8275 24.5828C43.4421 24.8484 43.1374 25.1974 42.9135 25.6297C42.6947 26.0568 42.5853 26.5125 42.5853 26.9969C42.5853 27.4813 42.6947 27.937 42.9135 28.3641C43.1322 28.7859 43.4317 29.1271 43.8119 29.3875C44.1973 29.6479 44.6296 29.7781 45.1088 29.7781ZM56.576 22.6063C56.9614 22.6063 57.3364 22.6844 57.701 22.8406C58.0707 22.9917 58.3989 23.1844 58.6853 23.4188C58.977 23.6479 59.1931 23.8849 59.3338 24.1297L59.4197 23.3797C59.4197 23.1662 59.4822 22.9839 59.6072 22.8328C59.7322 22.6766 59.9015 22.5984 60.115 22.5984C60.3286 22.5984 60.5108 22.6766 60.6619 22.8328C60.8181 22.9839 60.8963 23.1662 60.8963 23.3797V23.3953L60.8806 30.6297C60.8806 30.8432 60.8025 31.0281 60.6463 31.1844C60.4952 31.3354 60.3129 31.4109 60.0994 31.4109C59.8858 31.4109 59.7166 31.3354 59.5916 31.1844C59.4666 31.0281 59.4041 30.8432 59.4041 30.6297L59.3181 30.0047C59.0473 30.4682 58.6515 30.8146 58.1306 31.0438C57.6098 31.2677 57.0864 31.3797 56.5603 31.3797C55.9718 31.3797 55.4197 31.2651 54.9041 31.0359C54.3885 30.8016 53.9353 30.4813 53.5447 30.075C53.1541 29.6688 52.8468 29.2026 52.6228 28.6766C52.4041 28.1505 52.2947 27.5958 52.2947 27.0125C52.2947 26.4344 52.4015 25.8823 52.615 25.3563C52.8338 24.825 53.1358 24.3537 53.5213 23.9422C53.9119 23.5255 54.365 23.2 54.8806 22.9656C55.4015 22.7261 55.9666 22.6063 56.576 22.6063ZM59.2713 26.9969C59.2713 26.4865 59.1515 26.0177 58.9119 25.5906C58.6775 25.1636 58.3572 24.8198 57.951 24.5594C57.5447 24.299 57.0812 24.1688 56.5603 24.1688C56.0499 24.1688 55.589 24.299 55.1775 24.5594C54.7661 24.8198 54.4405 25.1662 54.201 25.5984C53.9614 26.0255 53.8416 26.4891 53.8416 26.9891C53.8416 27.4943 53.964 27.963 54.2088 28.3953C54.4536 28.8224 54.7817 29.1662 55.1931 29.4266C55.6098 29.687 56.0681 29.8172 56.5681 29.8172C57.0681 29.8172 57.5213 29.687 57.9275 29.4266C58.339 29.1662 58.6645 28.8224 58.9041 28.3953C59.1489 27.963 59.2713 27.4969 59.2713 26.9969ZM72.3478 27.0125C72.3478 27.6011 72.2385 28.174 72.0197 28.7313C71.8062 29.2886 71.4832 29.7807 71.051 30.2078C70.6707 30.5776 70.2332 30.8641 69.7385 31.0672C69.2437 31.2703 68.7306 31.3719 68.1994 31.3719C67.6577 31.3719 67.176 31.2573 66.7541 31.0281C66.3374 30.799 65.9598 30.4891 65.6213 30.0984V33.3875C65.6213 33.6011 65.5431 33.7833 65.3869 33.9344C65.2358 34.0906 65.0536 34.1688 64.84 34.1688C64.6265 34.1688 64.4416 34.0906 64.2853 33.9344C64.1343 33.7833 64.0588 33.6011 64.0588 33.3875V23.4109C64.0588 23.1974 64.1343 23.0151 64.2853 22.8641C64.4416 22.7078 64.6265 22.6297 64.84 22.6297C65.0536 22.6297 65.2124 22.7078 65.3166 22.8641C65.426 23.0151 65.4963 23.1974 65.5275 23.4109L65.6213 24.0438C65.9181 23.6167 66.3088 23.2807 66.7931 23.0359C67.2827 22.7912 67.7697 22.6688 68.2541 22.6688C68.8426 22.6688 69.3843 22.7859 69.8791 23.0203C70.3791 23.2547 70.814 23.575 71.1838 23.9813C71.5536 24.3823 71.84 24.8432 72.0431 25.3641C72.2463 25.8849 72.3478 26.4344 72.3478 27.0125ZM68.2697 24.2313C67.9312 24.2313 67.5952 24.3068 67.2619 24.4578C66.9286 24.6037 66.6447 24.8068 66.4103 25.0672C66.176 25.3224 65.9937 25.6271 65.8635 25.9813C65.7385 26.3302 65.676 26.687 65.676 27.0516C65.676 27.5516 65.7853 28.0125 66.0041 28.4344C66.2228 28.8563 66.5249 29.1948 66.9103 29.45C67.2957 29.7052 67.7358 29.8328 68.2306 29.8328C68.7254 29.8328 69.1655 29.7 69.551 29.4344C69.9364 29.1636 70.2385 28.8146 70.4572 28.3875C70.6812 27.9552 70.7931 27.4969 70.7931 27.0125C70.7931 26.5229 70.6838 26.0672 70.465 25.6453C70.2463 25.2234 69.9468 24.8823 69.5666 24.6219C69.1864 24.3615 68.7541 24.2313 68.2697 24.2313ZM83.4166 27.0125C83.4166 27.6011 83.3072 28.174 83.0885 28.7313C82.8749 29.2886 82.552 29.7807 82.1197 30.2078C81.7395 30.5776 81.302 30.8641 80.8072 31.0672C80.3124 31.2703 79.7994 31.3719 79.2681 31.3719C78.7265 31.3719 78.2447 31.2573 77.8228 31.0281C77.4062 30.799 77.0286 30.4891 76.69 30.0984V33.3875C76.69 33.6011 76.6119 33.7833 76.4556 33.9344C76.3046 34.0906 76.1223 34.1688 75.9088 34.1688C75.6952 34.1688 75.5103 34.0906 75.3541 33.9344C75.203 33.7833 75.1275 33.6011 75.1275 33.3875V23.4109C75.1275 23.1974 75.203 23.0151 75.3541 22.8641C75.5103 22.7078 75.6952 22.6297 75.9088 22.6297C76.1223 22.6297 76.2812 22.7078 76.3853 22.8641C76.4947 23.0151 76.565 23.1974 76.5963 23.4109L76.69 24.0438C76.9869 23.6167 77.3775 23.2807 77.8619 23.0359C78.3515 22.7912 78.8385 22.6688 79.3228 22.6688C79.9114 22.6688 80.453 22.7859 80.9478 23.0203C81.4478 23.2547 81.8827 23.575 82.2525 23.9813C82.6223 24.3823 82.9088 24.8432 83.1119 25.3641C83.315 25.8849 83.4166 26.4344 83.4166 27.0125ZM79.3385 24.2313C78.9999 24.2313 78.664 24.3068 78.3306 24.4578C77.9973 24.6037 77.7135 24.8068 77.4791 25.0672C77.2447 25.3224 77.0624 25.6271 76.9322 25.9813C76.8072 26.3302 76.7447 26.687 76.7447 27.0516C76.7447 27.5516 76.8541 28.0125 77.0728 28.4344C77.2916 28.8563 77.5937 29.1948 77.9791 29.45C78.3645 29.7052 78.8046 29.8328 79.2994 29.8328C79.7942 29.8328 80.2343 29.7 80.6197 29.4344C81.0051 29.1636 81.3072 28.8146 81.526 28.3875C81.7499 27.9552 81.8619 27.4969 81.8619 27.0125C81.8619 26.5229 81.7525 26.0672 81.5338 25.6453C81.315 25.2234 81.0155 24.8823 80.6353 24.6219C80.2551 24.3615 79.8228 24.2313 79.3385 24.2313Z" fill="url(#paint1_linear_10_24)"/>
    <path d="M40.7813 8.62179C40.7813 7.65824 40.9505 6.74244 41.2891 5.87439C41.6276 5.00633 42.105 4.23376 42.7214 3.55668C43.3377 2.8796 44.0538 2.34574 44.8698 1.95512C45.6944 1.56449 46.5885 1.36918 47.5521 1.36918C48.5069 1.36918 49.3707 1.55581 50.1432 1.92908C50.9245 2.29366 51.5929 2.77977 52.1484 3.38741C52.7127 3.98637 53.1337 4.64175 53.4115 5.35356C53.4722 5.50113 53.5026 5.66606 53.5026 5.84835C53.5026 6.20425 53.3724 6.51241 53.112 6.77283C52.8602 7.02456 52.5564 7.15043 52.2005 7.15043C51.9575 7.15043 51.7188 7.06797 51.4844 6.90304C51.25 6.7381 51.0851 6.53845 50.9896 6.30408C50.7465 5.67908 50.3212 5.13654 49.7135 4.67647C49.1146 4.20772 48.3941 3.97335 47.5521 3.97335C46.7622 3.97335 46.0503 4.1947 45.4167 4.63741C44.7917 5.07144 44.2969 5.64001 43.9323 6.34314C43.5677 7.04626 43.3854 7.80581 43.3854 8.62179C43.3854 9.44644 43.572 10.2233 43.9453 10.9525C44.3186 11.673 44.8307 12.2589 45.4818 12.7103C46.1328 13.153 46.8663 13.3744 47.6823 13.3744C48.4809 13.3744 49.171 13.1747 49.7526 12.7754C50.3342 12.3674 50.7726 11.8944 51.0677 11.3562C51.1719 11.1652 51.3368 11.0046 51.5625 10.8744C51.7882 10.7355 52.0095 10.6661 52.2266 10.6661C52.5825 10.6661 52.8863 10.7963 53.138 11.0567C53.3984 11.3084 53.5286 11.6122 53.5286 11.9681C53.5286 12.1852 53.4722 12.3978 53.3594 12.6062C52.8646 13.5176 52.1267 14.3075 51.1458 14.976C50.1649 15.6444 49.0104 15.9786 47.6823 15.9786C46.6927 15.9786 45.7769 15.7832 44.9349 15.3926C44.1016 14.9933 43.3724 14.4508 42.7474 13.765C42.1311 13.0793 41.6493 12.298 41.3021 11.4213C40.9549 10.5358 40.7813 9.60269 40.7813 8.62179ZM64.75 1.3822C65.7483 1.3822 66.6771 1.57317 67.5365 1.95512C68.4045 2.33706 69.1641 2.86658 69.8151 3.54366C70.4661 4.22074 70.974 4.99765 71.3385 5.87439C71.7118 6.75113 71.8984 7.68429 71.8984 8.67387C71.8984 9.64609 71.7118 10.5706 71.3385 11.4473C70.9653 12.3154 70.4488 13.0836 69.7891 13.752C69.138 14.4117 68.3785 14.9325 67.5104 15.3145C66.651 15.6964 65.7309 15.8874 64.75 15.8874C63.7778 15.8874 62.8576 15.7008 61.9896 15.3275C61.1302 14.9543 60.3707 14.4378 59.7109 13.778C59.0599 13.1183 58.5477 12.3544 58.1745 11.4864C57.8012 10.6096 57.6146 9.67213 57.6146 8.67387C57.6146 7.68429 57.8012 6.75113 58.1745 5.87439C58.5477 4.99765 59.0599 4.22508 59.7109 3.55668C60.3707 2.8796 61.1302 2.35008 61.9896 1.96814C62.849 1.57751 63.7691 1.3822 64.75 1.3822ZM60.2448 8.69991C60.2448 9.54192 60.4488 10.3102 60.8568 11.0046C61.2734 11.6904 61.8247 12.2372 62.5104 12.6452C63.1962 13.0532 63.9471 13.2572 64.763 13.2572C65.5964 13.2572 66.3516 13.0489 67.0286 12.6322C67.7144 12.2069 68.2569 11.647 68.6563 10.9525C69.0642 10.2581 69.2682 9.49852 69.2682 8.67387C69.2682 7.83185 69.0686 7.05929 68.6693 6.35616C68.27 5.64435 67.7274 5.07578 67.0417 4.65043C66.3646 4.22508 65.6007 4.01241 64.75 4.01241C63.8906 4.01241 63.1224 4.22942 62.4453 4.66345C61.7682 5.0888 61.23 5.65738 60.8307 6.36918C60.4401 7.07231 60.2448 7.84922 60.2448 8.69991ZM82.9896 1.3822C83.9878 1.3822 84.9167 1.57317 85.776 1.95512C86.6441 2.33706 87.4036 2.86658 88.0547 3.54366C88.7057 4.22074 89.2135 4.99765 89.5781 5.87439C89.9514 6.75113 90.138 7.68429 90.138 8.67387C90.138 9.64609 89.9514 10.5706 89.5781 11.4473C89.2049 12.3154 88.6884 13.0836 88.0286 13.752C87.3776 14.4117 86.6181 14.9325 85.75 15.3145C84.8906 15.6964 83.9705 15.8874 82.9896 15.8874C82.0174 15.8874 81.0972 15.7008 80.2292 15.3275C79.3698 14.9543 78.6102 14.4378 77.9505 13.778C77.2995 13.1183 76.7873 12.3544 76.4141 11.4864C76.0408 10.6096 75.8542 9.67213 75.8542 8.67387C75.8542 7.68429 76.0408 6.75113 76.4141 5.87439C76.7873 4.99765 77.2995 4.22508 77.9505 3.55668C78.6102 2.8796 79.3698 2.35008 80.2292 1.96814C81.0885 1.57751 82.0087 1.3822 82.9896 1.3822ZM78.4844 8.69991C78.4844 9.54192 78.6884 10.3102 79.0964 11.0046C79.513 11.6904 80.0642 12.2372 80.75 12.6452C81.4358 13.0532 82.1866 13.2572 83.0026 13.2572C83.8359 13.2572 84.5911 13.0489 85.2682 12.6322C85.954 12.2069 86.4965 11.647 86.8958 10.9525C87.3038 10.2581 87.5078 9.49852 87.5078 8.67387C87.5078 7.83185 87.3082 7.05929 86.9089 6.35616C86.5095 5.64435 85.967 5.07578 85.2813 4.65043C84.6042 4.22508 83.8403 4.01241 82.9896 4.01241C82.1302 4.01241 81.362 4.22942 80.6849 4.66345C80.0078 5.0888 79.4696 5.65738 79.0703 6.36918C78.6797 7.07231 78.4844 7.84922 78.4844 8.69991ZM97.2839 3.43949C97.7526 2.97942 98.3125 2.52369 98.9635 2.07231C99.6233 1.62092 100.387 1.39522 101.255 1.39522C102.392 1.39522 103.339 1.69904 104.094 2.30668C104.849 2.90564 105.405 3.60442 105.76 4.40303C106.038 5.03672 106.203 5.66606 106.255 6.29106C106.316 6.90738 106.346 7.48897 106.346 8.03585V14.6114C106.346 14.9673 106.216 15.2754 105.956 15.5358C105.704 15.7876 105.4 15.9135 105.044 15.9135C104.688 15.9135 104.38 15.7876 104.12 15.5358C103.868 15.2754 103.742 14.9673 103.742 14.6114V8.03585C103.742 7.52369 103.716 7.0506 103.664 6.61658C103.621 6.18255 103.525 5.8006 103.378 5.47074C103.213 5.0888 102.957 4.75026 102.609 4.45512C102.262 4.1513 101.819 3.99939 101.281 3.99939C99.9965 3.99939 99.0069 4.48984 98.3125 5.47074C97.6267 6.45165 97.2882 7.77543 97.2969 9.4421L97.3099 14.6374C97.3099 14.9933 97.1797 15.3015 96.9193 15.5619C96.6675 15.8136 96.3637 15.9395 96.0078 15.9395C95.6432 15.9395 95.3351 15.8136 95.0833 15.5619C94.8316 15.3015 94.7057 14.989 94.7057 14.6244L94.6797 2.65824C94.6797 2.30234 94.7752 1.99852 94.9661 1.74678C95.1658 1.48637 95.4436 1.35616 95.7995 1.35616C96.1554 1.35616 96.4288 1.48637 96.6198 1.74678C96.8108 1.99852 96.9583 2.30234 97.0625 2.65824L97.2839 3.43949ZM123.349 1.33012C123.705 1.33012 124.009 1.46033 124.26 1.72074C124.521 1.97248 124.651 2.2763 124.651 2.6322V2.65824L124.56 15.0931C124.551 16.0654 124.352 16.9812 123.961 17.8405C123.579 18.6999 123.049 19.4595 122.372 20.1192C121.695 20.7789 120.918 21.2954 120.042 21.6687C119.174 22.0419 118.249 22.2286 117.268 22.2286C116.166 22.2286 115.111 21.9855 114.104 21.4994C113.106 21.022 112.26 20.3492 111.565 19.4812C111.365 19.2294 111.266 18.9516 111.266 18.6478C111.266 18.2919 111.391 17.9838 111.643 17.7233C111.904 17.4716 112.212 17.3457 112.568 17.3457C112.741 17.3457 112.928 17.3935 113.128 17.489C113.336 17.5845 113.497 17.706 113.609 17.8536C114.043 18.3918 114.59 18.8214 115.25 19.1426C115.918 19.4638 116.595 19.6244 117.281 19.6244C118.123 19.6244 118.896 19.4161 119.599 18.9994C120.311 18.5827 120.879 18.0272 121.305 17.3327C121.739 16.6383 121.956 15.8787 121.956 15.0541V13.778C121.444 14.5766 120.823 15.1279 120.094 15.4317C119.373 15.7268 118.635 15.8744 117.88 15.8744C116.934 15.8744 116.053 15.6704 115.237 15.2624C114.43 14.8544 113.727 14.3032 113.128 13.6088C112.529 12.9143 112.06 12.1287 111.721 11.252C111.391 10.3666 111.227 9.45512 111.227 8.51762C111.227 7.58012 111.391 6.68602 111.721 5.83533C112.06 4.97595 112.529 4.21206 113.128 3.54366C113.727 2.87526 114.43 2.34574 115.237 1.95512C116.044 1.56449 116.925 1.36918 117.88 1.36918C118.705 1.36918 119.477 1.56015 120.198 1.9421C120.918 2.32404 121.53 2.90564 122.034 3.68689L122.229 2.64522C122.299 2.28932 122.411 1.98116 122.568 1.72074C122.724 1.46033 122.984 1.33012 123.349 1.33012ZM121.93 8.53064C121.93 7.74071 121.756 7.00286 121.409 6.3171C121.062 5.62265 120.584 5.05842 119.977 4.62439C119.378 4.19036 118.692 3.97335 117.919 3.97335C117.129 3.97335 116.426 4.19036 115.81 4.62439C115.202 5.04974 114.72 5.60963 114.365 6.30408C114.017 6.98984 113.844 7.72769 113.844 8.51762C113.844 9.29887 114.017 10.0541 114.365 10.7832C114.712 11.5037 115.189 12.0983 115.797 12.5671C116.405 13.0358 117.099 13.2702 117.88 13.2702C118.653 13.2702 119.343 13.0402 119.951 12.5801C120.567 12.12 121.049 11.5298 121.396 10.8093C121.752 10.0801 121.93 9.32057 121.93 8.53064Z" fill="url(#paint2_linear_10_24)"/>
    <defs>
        <filter id="filter0_i_10_24" x="0" y="0" width="32.2667" height="32.2667" filterUnits="userSpaceOnUse" color-interpolation-filters="sRGB">
            <feFlood flood-opacity="0" result="BackgroundImageFix"/>
            <feBlend mode="normal" in="SourceGraphic" in2="BackgroundImageFix" result="shape"/>
            <feColorMatrix in="SourceAlpha" type="matrix" values="0 0 0 0 0 0 0 0 0 0 0 0 0 0 0 0 0 0 127 0" result="hardAlpha"/>
            <feOffset dx="0.266667" dy="0.266667"/>
            <feGaussianBlur stdDeviation="0.266667"/>
            <feComposite in2="hardAlpha" operator="arithmetic" k2="-1" k3="1"/>
            <feColorMatrix type="matrix" values="0 0 0 0 0 0 0 0 0 0 0 0 0 0 0 0 0 0 0.25 0"/>
            <feBlend mode="normal" in2="shape" result="effect1_innerShadow_10_24"/>
        </filter>
        <linearGradient id="paint0_linear_10_24" x1="15.9979" y1="0" x2="15.9979" y2="32" gradientUnits="userSpaceOnUse">
            <stop stop-color="#1C9DFF"/>
            <stop offset="1" stop-color="#1A88DB"/>
        </linearGradient>
        <linearGradient id="paint1_linear_10_24" x1="66.1029" y1="19.2" x2="66.1029" y2="30.2933" gradientUnits="userSpaceOnUse">
            <stop stop-color="#1C9DFF"/>
            <stop offset="1" stop-color="#1A88DB"/>
        </linearGradient>
        <linearGradient id="paint2_linear_10_24" x1="82.9809" y1="0.640015" x2="82.9809" y2="27.04" gradientUnits="userSpaceOnUse">
            <stop stop-color="#1C9DFF"/>
            <stop offset="1" stop-color="#1A88DB"/>
        </linearGradient>
    </defs>
</svg>
