<svg width="358" height="100" viewBox="0 0 358 100" fill="none" xmlns="http://www.w3.org/2000/svg">
    <mask id="path-1-inside-1_8622_1575" fill="white">
        <path d="M32.2066 87.5541L43.4115 97.2975C45.4834 99.0992 46.5194 100 47.758 100C48.9966 100 50.0325 99.0992 52.1044 97.2975L65.3241 85.8023C67.5657 83.8531 68.6866 82.8784 69.2828 81.5699C69.879 80.2614 69.879 78.7761 69.879 75.8055V53.4365C69.879 52.8424 69.879 52.5453 69.9982 52.2836C70.1174 52.0219 70.3416 51.827 70.79 51.4371L83.2636 40.5908C85.5053 38.6415 86.6262 37.6669 87.2224 36.3584C87.8186 35.0499 87.8186 33.5645 87.8186 30.5938V20.9125C87.8186 19.8681 87.8186 19.3459 87.4955 19.1987C87.1724 19.0515 86.7783 19.3941 85.9902 20.0794L58.1634 44.2767C57.192 45.1213 56.7063 45.5437 56.4479 46.1107C56.1896 46.6777 56.1896 47.3214 56.1896 48.6086V71.9967C56.1896 73.3917 56.1896 74.0892 56.006 74.7347C55.8736 75.2002 55.6718 75.643 55.4074 76.0483C55.0406 76.6104 54.5142 77.068 53.4614 77.9832C53.1598 78.2454 53.0089 78.3765 52.8804 78.3733C52.7903 78.371 52.7051 78.3322 52.6443 78.2657C52.5575 78.1708 52.5575 77.971 52.5575 77.5713V47.5704C52.5575 45.9861 52.5575 45.1939 52.8755 44.4961C53.1935 43.7982 53.7912 43.2784 54.9868 42.2388L83.2638 17.6501C85.5054 15.7008 86.6263 14.7262 87.2225 13.4177C87.8186 12.1092 87.8186 10.6239 87.8186 7.65326V4.41592C87.8186 2.33424 87.8186 1.29339 87.1719 0.646696C86.5252 0 85.4844 0 83.4027 0H17.7023C15.2522 0 14.0271 0 12.905 0.41966C11.7828 0.839319 10.8583 1.64319 9.00945 3.25093L4.60711 7.07905C2.36546 9.02831 1.24462 10.003 0.648434 11.3114C0.0522461 12.6199 0.0522461 14.1052 0.0522461 17.0759V28.7035C0.0522461 30.7852 0.0522461 31.826 0.698942 32.4727C1.34564 33.1194 2.38648 33.1194 4.46816 33.1194H17.1775C19.6277 33.1194 20.8527 33.1194 21.9749 32.6997C23.0971 32.2801 24.0215 31.4762 25.8704 29.8685L41.7597 16.0517C43.1032 14.8834 43.775 14.2993 44.5904 13.9943C45.4059 13.6893 46.2961 13.6893 48.0765 13.6893H48.2251C48.9686 13.6893 49.3404 13.6893 49.4209 13.9045C49.5014 14.1197 49.2208 14.3637 48.6597 14.8516L32.0548 29.2907C29.8878 31.175 28.8044 32.1171 28.2281 33.382C27.6517 34.6469 27.6517 36.0827 27.6517 38.9543V77.5573C27.6517 80.5279 27.6517 82.0132 28.2479 83.3217C28.8441 84.6302 29.9649 85.6048 32.2066 87.5541Z"/>
        <path d="M113.819 29.556C112.876 29.556 112.404 29.556 112.112 29.2631C111.819 28.9702 111.819 28.4988 111.819 27.556V20.08C111.819 19.1372 111.819 18.6658 112.112 18.3729C112.404 18.08 112.876 18.08 113.819 18.08H151.923C152.865 18.08 153.337 18.08 153.63 18.3729C153.923 18.6658 153.923 19.1372 153.923 20.08V27.556C153.923 28.4988 153.923 28.9702 153.63 29.2631C153.337 29.556 152.865 29.556 151.923 29.556H141.255C140.312 29.556 139.84 29.556 139.548 29.8489C139.255 30.1418 139.255 30.6132 139.255 31.556V69.28C139.255 70.2228 139.255 70.6942 138.962 70.9871C138.669 71.28 138.197 71.28 137.255 71.28H128.411C127.468 71.28 126.996 71.28 126.704 70.9871C126.411 70.6942 126.411 70.2228 126.411 69.28V31.556C126.411 30.6132 126.411 30.1418 126.118 29.8489C125.825 29.556 125.353 29.556 124.411 29.556H113.819Z"/>
        <path d="M192.534 36.32C193.365 36.32 193.78 36.32 193.958 36.5924C194.135 36.8647 193.968 37.2446 193.632 38.0044L172.102 86.8073C171.846 87.3861 171.719 87.6755 171.47 87.8377C171.221 88 170.904 88 170.272 88H160.634C160.358 88 160.221 88 160.161 87.9096C160.102 87.8192 160.157 87.6928 160.267 87.4402L168.173 69.2986C168.352 68.8897 168.441 68.6853 168.438 68.4694C168.435 68.2535 168.34 68.0517 168.15 67.6482L154.216 38.0308C153.854 37.2616 153.673 36.877 153.85 36.5985C154.027 36.32 154.452 36.32 155.302 36.32H164.678C165.332 36.32 165.659 36.32 165.912 36.491C166.166 36.662 166.288 36.9651 166.533 37.5712L173.983 56.0227C174.141 56.4141 174.22 56.6098 174.356 56.6095C174.491 56.6093 174.569 56.4133 174.726 56.0213L182.093 37.5781C182.336 36.9688 182.458 36.6641 182.712 36.4921C182.966 36.32 183.294 36.32 183.95 36.32H192.534Z"/>
        <path d="M211.892 86C211.892 86.9428 211.892 87.4142 211.599 87.7071C211.306 88 210.835 88 209.892 88H202.416C201.473 88 201.002 88 200.709 87.7071C200.416 87.4142 200.416 86.9428 200.416 86V38.32C200.416 37.3772 200.416 36.9058 200.709 36.6129C201.002 36.32 201.473 36.32 202.416 36.32H209.892C210.835 36.32 211.306 36.32 211.599 36.6129C211.892 36.9058 211.892 37.3772 211.892 38.32V41.9158V65.6891V86ZM240.468 53.8C240.468 57.8533 239.658 61.2733 238.036 64.06C236.466 66.8467 234.414 68.9493 231.88 70.368C229.398 71.7867 226.712 72.496 223.824 72.496C220.784 72.496 218.15 71.736 215.92 70.216C214.296 69.045 212.953 67.536 211.892 65.6891V53.8V41.9158C212.953 40.0785 214.296 38.5932 215.92 37.46C218.15 35.8893 220.784 35.104 223.824 35.104C226.712 35.104 229.398 35.8133 231.88 37.232C234.414 38.6507 236.466 40.7533 238.036 43.54C239.658 46.276 240.468 49.696 240.468 53.8ZM228.384 53.8C228.384 51.976 228.004 50.4307 227.244 49.164C226.484 47.8973 225.471 46.9347 224.204 46.276C222.938 45.6173 221.544 45.288 220.024 45.288C218.707 45.288 217.415 45.6173 216.148 46.276C214.932 46.884 213.919 47.8213 213.108 49.088C212.298 50.3547 211.892 51.9253 211.892 53.8C211.892 55.6747 212.298 57.2453 213.108 58.512C213.919 59.7787 214.932 60.7413 216.148 61.4C217.415 62.008 218.707 62.312 220.024 62.312C221.544 62.312 222.938 61.9827 224.204 61.324C225.471 60.6653 226.484 59.7027 227.244 58.436C228.004 57.1693 228.384 55.624 228.384 53.8Z"/>
        <path d="M248.994 23.172C248.994 21.348 249.653 19.8787 250.97 18.764C252.288 17.5987 253.858 17.016 255.682 17.016C257.557 17.016 259.128 17.5987 260.394 18.764C261.712 19.8787 262.37 21.348 262.37 23.172C262.37 24.996 261.712 26.4907 260.394 27.656C259.128 28.8213 257.557 29.404 255.682 29.404C253.858 29.404 252.288 28.8213 250.97 27.656C249.653 26.4907 248.994 24.996 248.994 23.172ZM250.134 38.32C250.134 37.3772 250.134 36.9058 250.427 36.6129C250.72 36.32 251.192 36.32 252.134 36.32H259.23C260.173 36.32 260.645 36.32 260.938 36.6129C261.23 36.9058 261.23 37.3772 261.23 38.32V69.28C261.23 70.2228 261.23 70.6942 260.938 70.9871C260.645 71.28 260.173 71.28 259.23 71.28H252.134C251.192 71.28 250.72 71.28 250.427 70.9871C250.134 70.6942 250.134 70.2228 250.134 69.28V38.32Z"/>
        <path d="M295.686 50C295.686 47.9227 295.281 46.3267 294.47 45.212C293.71 44.0973 292.418 43.54 290.594 43.54C289.378 43.54 288.314 43.7933 287.402 44.3C286.49 44.8067 285.781 45.5413 285.274 46.504C284.768 47.4667 284.514 48.632 284.514 50V69.28C284.514 70.2228 284.514 70.6942 284.221 70.9871C283.929 71.28 283.457 71.28 282.514 71.28H274.962C274.02 71.28 273.548 71.28 273.255 70.9871C272.962 70.6942 272.962 70.2228 272.962 69.28V38.32C272.962 37.3772 272.962 36.9058 273.255 36.6129C273.548 36.32 274.02 36.32 274.962 36.32H282.514C283.457 36.32 283.929 36.32 284.221 36.6129C284.514 36.9058 284.514 37.3772 284.514 38.32V41.564C285.528 39.6387 286.896 38.144 288.618 37.08C290.392 36.016 292.57 35.484 295.154 35.484C299.512 35.484 302.678 36.6493 304.654 38.98C306.63 41.3107 307.618 44.5787 307.618 48.784V69.28C307.618 70.2228 307.618 70.6942 307.326 70.9871C307.033 71.28 306.561 71.28 305.618 71.28H297.686C296.744 71.28 296.272 71.28 295.979 70.9871C295.686 70.6942 295.686 70.2228 295.686 69.28V50Z"/>
        <path d="M318.881 14C318.881 13.0572 318.881 12.5858 319.174 12.2929C319.467 12 319.938 12 320.881 12H327.901C328.844 12 329.315 12 329.608 12.2929C329.901 12.5858 329.901 13.0572 329.901 14V69.28C329.901 70.2228 329.901 70.6942 329.608 70.9871C329.315 71.28 328.844 71.28 327.901 71.28H320.881C319.938 71.28 319.467 71.28 319.174 70.9871C318.881 70.6942 318.881 70.2228 318.881 69.28V14ZM342.012 36.8804C342.299 36.6037 342.443 36.4654 342.623 36.3927C342.803 36.32 343.002 36.32 343.401 36.32H355.358C355.779 36.32 355.989 36.32 356.039 36.4451C356.09 36.5703 355.939 36.7162 355.636 37.0079L342.692 49.4916C342.068 50.094 341.756 50.3952 341.731 50.7824C341.706 51.1696 341.978 51.5078 342.522 52.1841L357.346 70.6294C357.573 70.9117 357.687 71.0529 357.632 71.1664C357.578 71.28 357.397 71.28 357.035 71.28H345.292C344.824 71.28 344.591 71.28 344.387 71.1832C344.184 71.0865 344.036 70.9054 343.741 70.5434L328.783 52.186C328.232 51.5091 327.956 51.1707 327.979 50.7815C328.003 50.3922 328.317 50.0892 328.945 49.4831L342.012 36.8804Z"/>
    </mask>
    <g filter="url(#filter0_iiii_8622_1575)">
        <path d="M32.2066 87.5541L43.4115 97.2975C45.4834 99.0992 46.5194 100 47.758 100C48.9966 100 50.0325 99.0992 52.1044 97.2975L65.3241 85.8023C67.5657 83.8531 68.6866 82.8784 69.2828 81.5699C69.879 80.2614 69.879 78.7761 69.879 75.8055V53.4365C69.879 52.8424 69.879 52.5453 69.9982 52.2836C70.1174 52.0219 70.3416 51.827 70.79 51.4371L83.2636 40.5908C85.5053 38.6415 86.6262 37.6669 87.2224 36.3584C87.8186 35.0499 87.8186 33.5645 87.8186 30.5938V20.9125C87.8186 19.8681 87.8186 19.3459 87.4955 19.1987C87.1724 19.0515 86.7783 19.3941 85.9902 20.0794L58.1634 44.2767C57.192 45.1213 56.7063 45.5437 56.4479 46.1107C56.1896 46.6777 56.1896 47.3214 56.1896 48.6086V71.9967C56.1896 73.3917 56.1896 74.0892 56.006 74.7347C55.8736 75.2002 55.6718 75.643 55.4074 76.0483C55.0406 76.6104 54.5142 77.068 53.4614 77.9832C53.1598 78.2454 53.0089 78.3765 52.8804 78.3733C52.7903 78.371 52.7051 78.3322 52.6443 78.2657C52.5575 78.1708 52.5575 77.971 52.5575 77.5713V47.5704C52.5575 45.9861 52.5575 45.1939 52.8755 44.4961C53.1935 43.7982 53.7912 43.2784 54.9868 42.2388L83.2638 17.6501C85.5054 15.7008 86.6263 14.7262 87.2225 13.4177C87.8186 12.1092 87.8186 10.6239 87.8186 7.65326V4.41592C87.8186 2.33424 87.8186 1.29339 87.1719 0.646696C86.5252 0 85.4844 0 83.4027 0H17.7023C15.2522 0 14.0271 0 12.905 0.41966C11.7828 0.839319 10.8583 1.64319 9.00945 3.25093L4.60711 7.07905C2.36546 9.02831 1.24462 10.003 0.648434 11.3114C0.0522461 12.6199 0.0522461 14.1052 0.0522461 17.0759V28.7035C0.0522461 30.7852 0.0522461 31.826 0.698942 32.4727C1.34564 33.1194 2.38648 33.1194 4.46816 33.1194H17.1775C19.6277 33.1194 20.8527 33.1194 21.9749 32.6997C23.0971 32.2801 24.0215 31.4762 25.8704 29.8685L41.7597 16.0517C43.1032 14.8834 43.775 14.2993 44.5904 13.9943C45.4059 13.6893 46.2961 13.6893 48.0765 13.6893H48.2251C48.9686 13.6893 49.3404 13.6893 49.4209 13.9045C49.5014 14.1197 49.2208 14.3637 48.6597 14.8516L32.0548 29.2907C29.8878 31.175 28.8044 32.1171 28.2281 33.382C27.6517 34.6469 27.6517 36.0827 27.6517 38.9543V77.5573C27.6517 80.5279 27.6517 82.0132 28.2479 83.3217C28.8441 84.6302 29.9649 85.6048 32.2066 87.5541Z" fill="url(#paint0_linear_8622_1575)"/>
        <path d="M113.819 29.556C112.876 29.556 112.404 29.556 112.112 29.2631C111.819 28.9702 111.819 28.4988 111.819 27.556V20.08C111.819 19.1372 111.819 18.6658 112.112 18.3729C112.404 18.08 112.876 18.08 113.819 18.08H151.923C152.865 18.08 153.337 18.08 153.63 18.3729C153.923 18.6658 153.923 19.1372 153.923 20.08V27.556C153.923 28.4988 153.923 28.9702 153.63 29.2631C153.337 29.556 152.865 29.556 151.923 29.556H141.255C140.312 29.556 139.84 29.556 139.548 29.8489C139.255 30.1418 139.255 30.6132 139.255 31.556V69.28C139.255 70.2228 139.255 70.6942 138.962 70.9871C138.669 71.28 138.197 71.28 137.255 71.28H128.411C127.468 71.28 126.996 71.28 126.704 70.9871C126.411 70.6942 126.411 70.2228 126.411 69.28V31.556C126.411 30.6132 126.411 30.1418 126.118 29.8489C125.825 29.556 125.353 29.556 124.411 29.556H113.819Z" fill="url(#paint1_linear_8622_1575)"/>
        <path d="M192.534 36.32C193.365 36.32 193.78 36.32 193.958 36.5924C194.135 36.8647 193.968 37.2446 193.632 38.0044L172.102 86.8073C171.846 87.3861 171.719 87.6755 171.47 87.8377C171.221 88 170.904 88 170.272 88H160.634C160.358 88 160.221 88 160.161 87.9096C160.102 87.8192 160.157 87.6928 160.267 87.4402L168.173 69.2986C168.352 68.8897 168.441 68.6853 168.438 68.4694C168.435 68.2535 168.34 68.0517 168.15 67.6482L154.216 38.0308C153.854 37.2616 153.673 36.877 153.85 36.5985C154.027 36.32 154.452 36.32 155.302 36.32H164.678C165.332 36.32 165.659 36.32 165.912 36.491C166.166 36.662 166.288 36.9651 166.533 37.5712L173.983 56.0227C174.141 56.4141 174.22 56.6098 174.356 56.6095C174.491 56.6093 174.569 56.4133 174.726 56.0213L182.093 37.5781C182.336 36.9688 182.458 36.6641 182.712 36.4921C182.966 36.32 183.294 36.32 183.95 36.32H192.534Z" fill="url(#paint2_linear_8622_1575)"/>
        <path d="M211.892 86C211.892 86.9428 211.892 87.4142 211.599 87.7071C211.306 88 210.835 88 209.892 88H202.416C201.473 88 201.002 88 200.709 87.7071C200.416 87.4142 200.416 86.9428 200.416 86V38.32C200.416 37.3772 200.416 36.9058 200.709 36.6129C201.002 36.32 201.473 36.32 202.416 36.32H209.892C210.835 36.32 211.306 36.32 211.599 36.6129C211.892 36.9058 211.892 37.3772 211.892 38.32V41.9158V65.6891V86ZM240.468 53.8C240.468 57.8533 239.658 61.2733 238.036 64.06C236.466 66.8467 234.414 68.9493 231.88 70.368C229.398 71.7867 226.712 72.496 223.824 72.496C220.784 72.496 218.15 71.736 215.92 70.216C214.296 69.045 212.953 67.536 211.892 65.6891V53.8V41.9158C212.953 40.0785 214.296 38.5932 215.92 37.46C218.15 35.8893 220.784 35.104 223.824 35.104C226.712 35.104 229.398 35.8133 231.88 37.232C234.414 38.6507 236.466 40.7533 238.036 43.54C239.658 46.276 240.468 49.696 240.468 53.8ZM228.384 53.8C228.384 51.976 228.004 50.4307 227.244 49.164C226.484 47.8973 225.471 46.9347 224.204 46.276C222.938 45.6173 221.544 45.288 220.024 45.288C218.707 45.288 217.415 45.6173 216.148 46.276C214.932 46.884 213.919 47.8213 213.108 49.088C212.298 50.3547 211.892 51.9253 211.892 53.8C211.892 55.6747 212.298 57.2453 213.108 58.512C213.919 59.7787 214.932 60.7413 216.148 61.4C217.415 62.008 218.707 62.312 220.024 62.312C221.544 62.312 222.938 61.9827 224.204 61.324C225.471 60.6653 226.484 59.7027 227.244 58.436C228.004 57.1693 228.384 55.624 228.384 53.8Z" fill="url(#paint3_linear_8622_1575)"/>
        <path d="M248.994 23.172C248.994 21.348 249.653 19.8787 250.97 18.764C252.288 17.5987 253.858 17.016 255.682 17.016C257.557 17.016 259.128 17.5987 260.394 18.764C261.712 19.8787 262.37 21.348 262.37 23.172C262.37 24.996 261.712 26.4907 260.394 27.656C259.128 28.8213 257.557 29.404 255.682 29.404C253.858 29.404 252.288 28.8213 250.97 27.656C249.653 26.4907 248.994 24.996 248.994 23.172ZM250.134 38.32C250.134 37.3772 250.134 36.9058 250.427 36.6129C250.72 36.32 251.192 36.32 252.134 36.32H259.23C260.173 36.32 260.645 36.32 260.938 36.6129C261.23 36.9058 261.23 37.3772 261.23 38.32V69.28C261.23 70.2228 261.23 70.6942 260.938 70.9871C260.645 71.28 260.173 71.28 259.23 71.28H252.134C251.192 71.28 250.72 71.28 250.427 70.9871C250.134 70.6942 250.134 70.2228 250.134 69.28V38.32Z" fill="url(#paint4_linear_8622_1575)"/>
        <path d="M295.686 50C295.686 47.9227 295.281 46.3267 294.47 45.212C293.71 44.0973 292.418 43.54 290.594 43.54C289.378 43.54 288.314 43.7933 287.402 44.3C286.49 44.8067 285.781 45.5413 285.274 46.504C284.768 47.4667 284.514 48.632 284.514 50V69.28C284.514 70.2228 284.514 70.6942 284.221 70.9871C283.929 71.28 283.457 71.28 282.514 71.28H274.962C274.02 71.28 273.548 71.28 273.255 70.9871C272.962 70.6942 272.962 70.2228 272.962 69.28V38.32C272.962 37.3772 272.962 36.9058 273.255 36.6129C273.548 36.32 274.02 36.32 274.962 36.32H282.514C283.457 36.32 283.929 36.32 284.221 36.6129C284.514 36.9058 284.514 37.3772 284.514 38.32V41.564C285.528 39.6387 286.896 38.144 288.618 37.08C290.392 36.016 292.57 35.484 295.154 35.484C299.512 35.484 302.678 36.6493 304.654 38.98C306.63 41.3107 307.618 44.5787 307.618 48.784V69.28C307.618 70.2228 307.618 70.6942 307.326 70.9871C307.033 71.28 306.561 71.28 305.618 71.28H297.686C296.744 71.28 296.272 71.28 295.979 70.9871C295.686 70.6942 295.686 70.2228 295.686 69.28V50Z" fill="url(#paint5_linear_8622_1575)"/>
        <path d="M318.881 14C318.881 13.0572 318.881 12.5858 319.174 12.2929C319.467 12 319.938 12 320.881 12H327.901C328.844 12 329.315 12 329.608 12.2929C329.901 12.5858 329.901 13.0572 329.901 14V69.28C329.901 70.2228 329.901 70.6942 329.608 70.9871C329.315 71.28 328.844 71.28 327.901 71.28H320.881C319.938 71.28 319.467 71.28 319.174 70.9871C318.881 70.6942 318.881 70.2228 318.881 69.28V14ZM342.012 36.8804C342.299 36.6037 342.443 36.4654 342.623 36.3927C342.803 36.32 343.002 36.32 343.401 36.32H355.358C355.779 36.32 355.989 36.32 356.039 36.4451C356.09 36.5703 355.939 36.7162 355.636 37.0079L342.692 49.4916C342.068 50.094 341.756 50.3952 341.731 50.7824C341.706 51.1696 341.978 51.5078 342.522 52.1841L357.346 70.6294C357.573 70.9117 357.687 71.0529 357.632 71.1664C357.578 71.28 357.397 71.28 357.035 71.28H345.292C344.824 71.28 344.591 71.28 344.387 71.1832C344.184 71.0865 344.036 70.9054 343.741 70.5434L328.783 52.186C328.232 51.5091 327.956 51.1707 327.979 50.7815C328.003 50.3922 328.317 50.0892 328.945 49.4831L342.012 36.8804Z" fill="url(#paint6_linear_8622_1575)"/>
    </g>
    <path d="M43.4115 97.2975L44.0677 96.5429H44.0677L43.4115 97.2975ZM32.2066 87.5541L31.5504 88.3087L32.2066 87.5541ZM4.60711 7.07905L3.95093 6.32444H3.95093L4.60711 7.07905ZM9.00945 3.25093L8.35327 2.49632V2.49632L9.00945 3.25093ZM83.2638 17.6501L82.6076 16.8955L83.2638 17.6501ZM54.9868 42.2388L55.643 42.9934V42.9934L54.9868 42.2388ZM25.8704 29.8685L25.2142 29.1139L25.8704 29.8685ZM41.7597 16.0517L41.1035 15.2971L41.7597 16.0517ZM32.0548 29.2907L31.3986 28.5361L32.0548 29.2907ZM48.6597 14.8516L49.3159 15.6062L49.3159 15.6062L48.6597 14.8516ZM52.1044 97.2975L52.7606 98.0522L52.1044 97.2975ZM65.3241 85.8023L65.9802 86.5569L65.3241 85.8023ZM70.79 51.4371L71.4461 52.1917L70.79 51.4371ZM83.2636 40.5908L82.6074 39.8362L83.2636 40.5908ZM58.1634 44.2767L58.8195 45.0313V45.0313L58.1634 44.2767ZM85.9902 20.0794L86.6464 20.834L85.9902 20.0794ZM69.9982 52.2836L69.0882 51.869L69.0882 51.869L69.9982 52.2836ZM87.2224 36.3584L86.3124 35.9438V35.9438L87.2224 36.3584ZM49.4209 13.9045L50.3575 13.5543L50.3575 13.5542L49.4209 13.9045ZM44.5904 13.9943L44.2402 13.0577L44.5904 13.9943ZM53.4614 77.9832L52.8053 77.2285H52.8053L53.4614 77.9832ZM55.4074 76.0483L54.5699 75.5018L54.5699 75.5018L55.4074 76.0483ZM56.006 74.7347L56.9679 75.0082H56.9679L56.006 74.7347ZM52.6443 78.2657L51.9064 78.9406L51.9064 78.9406L52.6443 78.2657ZM52.8804 78.3733L52.9056 77.3736L52.9055 77.3736L52.8804 78.3733ZM69.2828 81.5699L68.3728 81.1553L68.3728 81.1553L69.2828 81.5699ZM56.4479 46.1107L57.3579 46.5253L57.3579 46.5253L56.4479 46.1107ZM87.4955 19.1987L87.9101 18.2887L87.9101 18.2887L87.4955 19.1987ZM87.2225 13.4177L88.1324 13.8323V13.8323L87.2225 13.4177ZM52.8755 44.4961L51.9655 44.0814L51.9655 44.0814L52.8755 44.4961ZM28.2281 33.382L27.3181 32.9674L28.2281 33.382ZM21.9749 32.6997L22.3252 33.6364H22.3252L21.9749 32.6997ZM0.648434 11.3114L1.55843 11.7261H1.55843L0.648434 11.3114ZM238.036 64.06L237.172 63.5571L237.165 63.569L238.036 64.06ZM231.88 70.368L231.392 69.4955L231.384 69.4998L231.88 70.368ZM215.92 70.216L215.335 71.0272L215.346 71.0348L215.357 71.0422L215.92 70.216ZM215.92 37.46L216.492 38.2801L216.496 38.2775L215.92 37.46ZM231.88 37.232L231.384 38.1003L231.392 38.1045L231.88 37.232ZM238.036 43.54L237.165 44.031L237.17 44.0405L237.176 44.0498L238.036 43.54ZM227.244 49.164L226.387 49.6785L227.244 49.164ZM224.204 46.276L224.666 45.3888L224.204 46.276ZM216.148 46.276L216.595 47.1704L216.603 47.1669L216.61 47.1632L216.148 46.276ZM213.108 49.088L212.266 48.5489L213.108 49.088ZM213.108 58.512L213.951 57.9729L213.108 58.512ZM216.148 61.4L215.672 62.2793L215.693 62.2909L215.715 62.3015L216.148 61.4ZM224.204 61.324L223.743 60.4368L224.204 61.324ZM227.244 58.436L226.387 57.9215L227.244 58.436ZM250.97 18.764L251.616 19.5274L251.625 19.5203L251.633 19.513L250.97 18.764ZM260.394 18.764L259.717 19.4999L259.733 19.514L259.749 19.5274L260.394 18.764ZM260.394 27.656L259.732 26.907L259.725 26.9135L259.717 26.9201L260.394 27.656ZM250.97 27.656L251.633 26.907L250.97 27.656ZM294.47 45.212L293.644 45.7753L293.653 45.7879L293.662 45.8002L294.47 45.212ZM285.274 46.504L286.159 46.9697V46.9697L285.274 46.504ZM284.514 41.564H283.514L285.399 42.0297L284.514 41.564ZM288.618 37.08L288.104 36.2224L288.093 36.2292L288.618 37.08ZM304.654 38.98L303.892 39.6267L304.654 38.98ZM328.783 52.186L328.008 52.8176L328.783 52.186ZM328.945 49.4831L329.639 50.2029L328.945 49.4831ZM343.741 70.5434L344.516 69.9117L343.741 70.5434ZM357.346 70.6294L358.126 70.003L357.346 70.6294ZM342.692 49.4916L343.387 50.2114L342.692 49.4916ZM342.522 52.1841L341.742 52.8106L342.522 52.1841ZM355.636 37.0079L354.942 36.2881L355.636 37.0079ZM342.012 36.8804L341.318 36.1607L342.012 36.8804ZM211.892 38.32H212.892H211.892ZM211.892 86H212.892H211.892ZM182.093 37.5781L181.164 37.2071L182.093 37.5781ZM174.726 56.0213L175.654 56.3922L174.726 56.0213ZM173.983 56.0227L173.056 56.3971L173.983 56.0227ZM166.533 37.5712L167.46 37.1967L166.533 37.5712ZM154.216 38.0308L153.311 38.4565L154.216 38.0308ZM168.173 69.2986L169.09 69.6981L168.173 69.2986ZM168.15 67.6482L169.055 67.2225L168.15 67.6482ZM160.267 87.4402L159.351 87.0407L160.267 87.4402ZM172.102 86.8073L173.017 87.2109L172.102 86.8073ZM193.632 38.0044L192.717 37.6007L193.632 38.0044ZM44.0677 96.5429L32.8628 86.7995L31.5504 88.3087L42.7554 98.0521L44.0677 96.5429ZM4.46816 34.1194H17.1775V32.1194H4.46816V34.1194ZM5.26329 7.83365L9.66562 4.00553L8.35327 2.49632L3.95093 6.32444L5.26329 7.83365ZM83.4027 -1H17.7023V1H83.4027V-1ZM82.6076 16.8955L54.3306 41.4842L55.643 42.9934L83.92 18.4047L82.6076 16.8955ZM51.5575 47.5704V77.5713H53.5575V47.5704H51.5575ZM57.1896 71.9967V48.6086H55.1896V71.9967H57.1896ZM1.05225 28.7035V17.0759H-0.947754V28.7035H1.05225ZM88.8186 7.65326V4.41592H86.8186V7.65326H88.8186ZM28.6517 77.5573V38.9543H26.6517V77.5573H28.6517ZM26.5266 30.6231L42.4159 16.8063L41.1035 15.2971L25.2142 29.1139L26.5266 30.6231ZM48.2251 12.6893H48.0765V14.6893H48.2251V12.6893ZM32.7109 30.0453L49.3159 15.6062L48.0035 14.097L31.3986 28.5361L32.7109 30.0453ZM52.7606 98.0522L65.9802 86.5569L64.6679 85.0477L51.4482 96.5429L52.7606 98.0522ZM86.8186 20.9125V30.5938H88.8186V20.9125H86.8186ZM71.4461 52.1917L83.9198 41.3454L82.6074 39.8362L70.1338 50.6825L71.4461 52.1917ZM70.879 75.8055V53.4365H68.879V75.8055H70.879ZM58.8195 45.0313L86.6464 20.834L85.334 19.3248L57.5072 43.5221L58.8195 45.0313ZM70.1338 50.6825C69.7538 51.0129 69.3185 51.3636 69.0882 51.869L70.9082 52.6982C70.9082 52.6982 70.9082 52.6982 70.9082 52.6981C70.9083 52.6981 70.9084 52.6978 70.9088 52.6972C70.9094 52.6961 70.9115 52.6927 70.916 52.6866C70.9255 52.6735 70.9456 52.6486 70.9865 52.6067C71.0782 52.5127 71.2099 52.3971 71.4461 52.1917L70.1338 50.6825ZM70.879 53.4365C70.879 53.1235 70.8797 52.9483 70.8905 52.8174C70.8953 52.759 70.9009 52.7275 70.9045 52.7118C70.9062 52.7043 70.9074 52.7006 70.9078 52.6994C70.908 52.6987 70.9081 52.6984 70.9081 52.6984C70.9081 52.6983 70.9082 52.6983 70.9082 52.6982L69.0882 51.869C68.8579 52.3744 68.879 52.933 68.879 53.4365H70.879ZM86.8186 30.5938C86.8186 33.6551 86.7976 34.879 86.3124 35.9438L88.1324 36.773C88.8396 35.2208 88.8186 33.474 88.8186 30.5938H86.8186ZM83.9198 41.3454C86.0931 39.4556 87.4251 38.3252 88.1324 36.773L86.3124 35.9438C85.8272 37.0086 84.9175 37.8275 82.6074 39.8362L83.9198 41.3454ZM48.2251 14.6893C48.4146 14.6893 48.5642 14.6894 48.6904 14.6924C48.8191 14.6955 48.8936 14.7012 48.9356 14.707C48.9869 14.714 48.9323 14.7139 48.8408 14.666C48.7883 14.6385 48.7174 14.5921 48.6476 14.5177C48.5756 14.4409 48.5201 14.3507 48.4843 14.2548L50.3575 13.5542C50.1013 12.8691 49.4264 12.7556 49.2076 12.7255C48.927 12.687 48.5639 12.6893 48.2251 12.6893V14.6893ZM49.3159 15.6062C49.5716 15.3838 49.8471 15.1474 50.0336 14.9341C50.179 14.7679 50.6138 14.2394 50.3575 13.5543L48.4842 14.2548C48.4484 14.1589 48.431 14.0545 48.435 13.9492C48.4389 13.8472 48.4619 13.7658 48.4835 13.7106C48.5211 13.6144 48.5623 13.5785 48.5282 13.6174C48.5003 13.6493 48.4478 13.7025 48.3527 13.7893C48.2594 13.8744 48.1466 13.9726 48.0035 14.097L49.3159 15.6062ZM42.4159 16.8063C43.8145 15.5901 44.3339 15.1579 44.9407 14.9309L44.2402 13.0577C43.2161 13.4406 42.3919 14.1767 41.1035 15.2971L42.4159 16.8063ZM48.0765 12.6893C46.3691 12.6893 45.2642 12.6747 44.2402 13.0577L44.9407 14.9309C45.5475 14.704 46.223 14.6893 48.0765 14.6893V12.6893ZM54.1175 78.7379C55.1273 77.8601 55.7841 77.3009 56.2449 76.5947L54.5699 75.5018C54.2971 75.9198 53.9011 76.2759 52.8053 77.2285L54.1175 78.7379ZM55.1896 71.9967C55.1896 73.4486 55.1807 73.9811 55.0441 74.4612L56.9679 75.0082C57.1985 74.1973 57.1896 73.3347 57.1896 71.9967H55.1896ZM56.2449 76.5948C56.5642 76.1053 56.808 75.5704 56.9679 75.0082L55.0441 74.4612C54.9393 74.8299 54.7794 75.1808 54.5699 75.5018L56.2449 76.5948ZM51.5575 77.5713C51.5575 77.7496 51.5564 77.9577 51.573 78.1294C51.5874 78.2769 51.6296 78.6379 51.9064 78.9406L53.3823 77.5909C53.4823 77.7003 53.5276 77.809 53.547 77.8699C53.5646 77.9252 53.5656 77.9561 53.5637 77.9362C53.562 77.919 53.5599 77.8839 53.5587 77.8173C53.5576 77.7516 53.5575 77.6739 53.5575 77.5713H51.5575ZM52.8053 77.2285C52.7279 77.2958 52.6692 77.3468 52.6189 77.389C52.5678 77.4318 52.54 77.4532 52.5259 77.4632C52.5096 77.4748 52.5336 77.4553 52.5869 77.4324C52.6456 77.407 52.7574 77.3699 52.9056 77.3736L52.8552 79.373C53.2652 79.3833 53.5653 79.1783 53.6861 79.0923C53.8266 78.9923 53.9829 78.8549 54.1175 78.7379L52.8053 77.2285ZM51.9064 78.9406C52.1507 79.2077 52.4933 79.3639 52.8552 79.373L52.9055 77.3736C53.0874 77.3782 53.2595 77.4566 53.3822 77.5908L51.9064 78.9406ZM65.9802 86.5569C68.1536 84.6671 69.4855 83.5367 70.1928 81.9845L68.3728 81.1553C67.8876 82.2201 66.9779 83.039 64.6679 85.0477L65.9802 86.5569ZM68.879 75.8055C68.879 78.8667 68.8579 80.0905 68.3728 81.1553L70.1928 81.9846C70.9 80.4324 70.879 78.6855 70.879 75.8055H68.879ZM57.1896 48.6086C57.1896 47.2308 57.2106 46.8486 57.3579 46.5253L55.5379 45.6961C55.1686 46.5068 55.1896 47.4119 55.1896 48.6086H57.1896ZM57.5072 43.5221C56.6041 44.3073 55.9073 44.8854 55.5379 45.6961L57.3579 46.5253C57.5052 46.202 57.7798 45.9354 58.8195 45.0313L57.5072 43.5221ZM88.8186 20.9125C88.8186 20.4242 88.8212 19.9445 88.7679 19.5761C88.7178 19.2291 88.5666 18.5878 87.9101 18.2887L87.0809 20.1087C86.9345 20.042 86.8418 19.9315 86.7982 19.849C86.7673 19.7906 86.7758 19.7745 86.7885 19.8622C86.8003 19.9436 86.8092 20.0653 86.8139 20.2503C86.8185 20.433 86.8186 20.6475 86.8186 20.9125H88.8186ZM86.6464 20.834C86.8464 20.6601 87.0083 20.5194 87.1492 20.4031C87.2919 20.2852 87.3895 20.2121 87.4587 20.1675C87.5332 20.1196 87.5267 20.1366 87.4623 20.1516C87.3714 20.1728 87.2272 20.1754 87.0809 20.1087L87.9101 18.2887C87.2536 17.9896 86.6705 18.2963 86.3757 18.4862C86.0628 18.6877 85.7025 19.0044 85.334 19.3248L86.6464 20.834ZM83.4027 1C84.4718 1 85.1731 1.00212 85.6922 1.07192C86.1826 1.13785 86.3583 1.24722 86.4648 1.3538L87.879 -0.0604094C87.3389 -0.600527 86.6708 -0.8145 85.9587 -0.910246C85.2753 -1.00212 84.4153 -1 83.4027 -1V1ZM88.8186 4.41592C88.8186 3.40335 88.8208 2.54332 88.7289 1.85994C88.6331 1.14779 88.4192 0.479707 87.879 -0.0604094L86.4648 1.3538C86.5714 1.46038 86.6808 1.63607 86.7467 2.12644C86.8165 2.64557 86.8186 3.34681 86.8186 4.41592H88.8186ZM83.92 18.4047C86.0933 16.5149 87.4252 15.3845 88.1324 13.8323L86.3125 13.0031C85.8273 14.0679 84.9176 14.8868 82.6076 16.8955L83.92 18.4047ZM86.8186 7.65326C86.8186 10.7145 86.7976 11.9383 86.3125 13.0031L88.1324 13.8323C88.8397 12.2801 88.8186 10.5333 88.8186 7.65326H86.8186ZM54.3306 41.4842C53.2034 42.4644 52.3945 43.1399 51.9655 44.0814L53.7855 44.9107C53.9924 44.4565 54.3791 44.0924 55.643 42.9934L54.3306 41.4842ZM53.5575 47.5704C53.5575 45.8955 53.5785 45.3648 53.7855 44.9107L51.9655 44.0814C51.5365 45.023 51.5575 46.0767 51.5575 47.5704H53.5575ZM42.7554 98.0521C43.7716 98.9358 44.6034 99.6616 45.341 100.155C46.1019 100.665 46.8652 101 47.758 101V99C47.4122 99 47.0382 98.8848 46.4536 98.4934C45.8455 98.0863 45.1234 97.4609 44.0677 96.5429L42.7554 98.0521ZM51.4482 96.5429C50.3926 97.4609 49.6705 98.0863 49.0624 98.4934C48.4777 98.8848 48.1037 99 47.758 99V101C48.6508 101 49.4141 100.665 50.175 100.155C50.9125 99.6616 51.7443 98.9359 52.7606 98.0522L51.4482 96.5429ZM32.8628 86.7995C30.5528 84.7908 29.6431 83.9719 29.1579 82.9071L27.3379 83.7363C28.0452 85.2885 29.3771 86.4189 31.5504 88.3087L32.8628 86.7995ZM26.6517 77.5573C26.6517 80.4373 26.6307 82.1841 27.3379 83.7363L29.1579 82.9071C28.6728 81.8423 28.6517 80.6185 28.6517 77.5573H26.6517ZM28.6517 38.9543C28.6517 35.9921 28.6728 34.8178 29.138 33.7966L27.3181 32.9674C26.6307 34.4759 26.6517 36.1732 26.6517 38.9543H28.6517ZM31.3986 28.5361C29.3 30.3609 28.0054 31.4588 27.3181 32.9674L29.138 33.7966C29.6033 32.7754 30.4757 31.989 32.7109 30.0453L31.3986 28.5361ZM17.1775 34.1194C19.5546 34.1194 20.9944 34.1341 22.3252 33.6364L21.6246 31.7631C20.7111 32.1047 19.7007 32.1194 17.1775 32.1194V34.1194ZM25.2142 29.1139C23.3102 30.7695 22.5381 31.4215 21.6246 31.7631L22.3252 33.6364C23.656 33.1387 24.7328 32.1829 26.5266 30.6231L25.2142 29.1139ZM9.66562 4.00553C11.5696 2.34987 12.3417 1.69794 13.2552 1.3563L12.5547 -0.516985C11.2239 -0.0193016 10.1471 0.93651 8.35327 2.49632L9.66562 4.00553ZM17.7023 -1C15.3252 -1 13.8855 -1.01467 12.5547 -0.516985L13.2552 1.3563C14.1688 1.01467 15.1792 1 17.7023 1V-1ZM3.95093 6.32444C1.77763 8.21427 0.445663 9.34463 -0.26156 10.8968L1.55843 11.7261C2.04358 10.6613 2.95329 9.84235 5.26329 7.83365L3.95093 6.32444ZM1.05225 17.0759C1.05225 14.0147 1.07328 12.7909 1.55843 11.7261L-0.26156 10.8968C-0.968784 12.449 -0.947754 14.1958 -0.947754 17.0759H1.05225ZM4.46816 32.1194C3.39905 32.1194 2.69782 32.1173 2.17868 32.0475C1.68831 31.9815 1.51263 31.8722 1.40605 31.7656L-0.0081645 33.1798C0.531952 33.7199 1.20004 33.9339 1.91219 34.0296C2.59557 34.1215 3.45559 34.1194 4.46816 34.1194V32.1194ZM-0.947754 28.7035C-0.947754 29.716 -0.949878 30.5761 -0.858 31.2595C-0.762254 31.9716 -0.548281 32.6397 -0.0081645 33.1798L1.40605 31.7656C1.29947 31.659 1.19009 31.4833 1.12417 30.993C1.05437 30.4738 1.05225 29.7726 1.05225 28.7035H-0.947754ZM112.819 27.556V20.08H110.819V27.556H112.819ZM113.819 19.08H151.923V17.08H113.819V19.08ZM152.923 20.08V27.556H154.923V20.08H152.923ZM151.923 28.556H141.255V30.556H151.923V28.556ZM138.255 31.556V69.28H140.255V31.556H138.255ZM137.255 70.28H128.411V72.28H137.255V70.28ZM127.411 69.28V31.556H125.411V69.28H127.411ZM124.411 28.556H113.819V30.556H124.411V28.556ZM192.717 37.6007L171.187 86.4036L173.017 87.2109L194.547 38.408L192.717 37.6007ZM170.272 87H160.634V89H170.272V87ZM161.184 87.8397L169.09 69.6981L167.257 68.8991L159.351 87.0407L161.184 87.8397ZM169.055 67.2225L155.121 37.6051L153.311 38.4565L167.245 68.0739L169.055 67.2225ZM155.302 37.32H164.678V35.32H155.302V37.32ZM183.95 37.32H192.534V35.32H183.95V37.32ZM209.892 87H202.416V89H209.892V87ZM201.416 86V38.32H199.416V86H201.416ZM202.416 37.32H209.892V35.32H202.416V37.32ZM239.468 53.8C239.468 57.7215 238.684 60.9577 237.172 63.5571L238.901 64.5629C240.631 61.5889 241.468 57.9852 241.468 53.8H239.468ZM237.165 63.569C235.675 66.2126 233.749 68.1754 231.392 69.4955L232.369 71.2405C235.078 69.7232 237.256 67.4808 238.907 64.551L237.165 63.569ZM231.384 69.4998C229.054 70.8312 226.54 71.496 223.824 71.496V73.496C226.884 73.496 229.741 72.7421 232.376 71.2362L231.384 69.4998ZM223.824 71.496C220.959 71.496 218.526 70.7825 216.484 69.3898L215.357 71.0422C217.773 72.6895 220.61 73.496 223.824 73.496V71.496ZM212.892 65.6891V53.8H210.892V65.6891H212.892ZM212.892 53.8V41.9158H210.892V53.8H212.892ZM216.496 38.2775C218.538 36.8391 220.966 36.104 223.824 36.104V34.104C220.603 34.104 217.761 34.9396 215.344 36.6425L216.496 38.2775ZM223.824 36.104C226.54 36.104 229.054 36.7688 231.384 38.1002L232.376 36.3638C229.741 34.8578 226.884 34.104 223.824 34.104V36.104ZM231.392 38.1045C233.749 39.4245 235.675 41.3874 237.165 44.031L238.907 43.049C237.256 40.1192 235.078 37.8768 232.369 36.3595L231.392 38.1045ZM237.176 44.0498C238.683 46.5928 239.468 49.8243 239.468 53.8H241.468C241.468 49.5677 240.632 45.9592 238.897 43.0302L237.176 44.0498ZM229.384 53.8C229.384 51.8371 228.975 50.1043 228.102 48.6495L226.387 49.6785C227.034 50.7571 227.384 52.1149 227.384 53.8H229.384ZM228.102 48.6495C227.25 47.2302 226.102 46.1358 224.666 45.3888L223.743 47.1632C224.84 47.7336 225.718 48.5645 226.387 49.6785L228.102 48.6495ZM224.666 45.3888C223.247 44.6512 221.694 44.288 220.024 44.288V46.288C221.394 46.288 222.628 46.5834 223.743 47.1632L224.666 45.3888ZM220.024 44.288C218.533 44.288 217.084 44.6624 215.687 45.3888L216.61 47.1632C217.746 46.5723 218.881 46.288 220.024 46.288V44.288ZM215.701 45.3816C214.307 46.0786 213.163 47.147 212.266 48.5489L213.951 49.6271C214.675 48.4957 215.558 47.6894 216.595 47.1704L215.701 45.3816ZM212.266 48.5489C211.33 50.012 210.892 51.7813 210.892 53.8H212.892C212.892 52.0694 213.266 50.6973 213.951 49.6271L212.266 48.5489ZM210.892 53.8C210.892 55.8187 211.33 57.588 212.266 59.0511L213.951 57.9729C213.266 56.9027 212.892 55.5306 212.892 53.8H210.892ZM212.266 59.0511C213.16 60.4475 214.294 61.5331 215.672 62.2793L216.625 60.5207C215.57 59.9496 214.678 59.1099 213.951 57.9729L212.266 59.0511ZM215.715 62.3015C217.108 62.9699 218.547 63.312 220.024 63.312V61.312C218.867 61.312 217.722 61.0461 216.581 60.4985L215.715 62.3015ZM220.024 63.312C221.694 63.312 223.247 62.9488 224.666 62.2112L223.743 60.4368C222.628 61.0166 221.394 61.312 220.024 61.312V63.312ZM224.666 62.2112C226.102 61.4642 227.25 60.3698 228.102 58.9505L226.387 57.9215C225.718 59.0355 224.84 59.8664 223.743 60.4368L224.666 62.2112ZM228.102 58.9505C228.975 57.4957 229.384 55.7629 229.384 53.8H227.384C227.384 55.4851 227.034 56.8429 226.387 57.9215L228.102 58.9505ZM249.994 23.172C249.994 21.623 250.538 20.44 251.616 19.5274L250.325 18.0006C248.768 19.3173 247.994 21.073 247.994 23.172H249.994ZM251.633 19.513C252.76 18.5158 254.093 18.016 255.682 18.016V16.016C253.624 16.016 251.815 16.6815 250.308 18.015L251.633 19.513ZM255.682 18.016C257.331 18.016 258.652 18.5202 259.717 19.4999L261.072 18.0281C259.603 16.6771 257.784 16.016 255.682 16.016V18.016ZM259.749 19.5274C260.827 20.44 261.37 21.623 261.37 23.172H263.37C263.37 21.073 262.596 19.3173 261.04 18.0006L259.749 19.5274ZM261.37 23.172C261.37 24.7216 260.826 25.9393 259.732 26.907L261.057 28.405C262.598 27.042 263.37 25.2704 263.37 23.172H261.37ZM259.717 26.9201C258.652 27.8998 257.331 28.404 255.682 28.404V30.404C257.784 30.404 259.603 29.7429 261.072 28.3919L259.717 26.9201ZM255.682 28.404C254.093 28.404 252.76 27.9042 251.633 26.907L250.308 28.405C251.815 29.7385 253.624 30.404 255.682 30.404V28.404ZM251.633 26.907C250.539 25.9394 249.994 24.7216 249.994 23.172H247.994C247.994 25.2704 248.767 27.042 250.308 28.405L251.633 26.907ZM252.134 37.32H259.23V35.32H252.134V37.32ZM260.23 38.32V69.28H262.23V38.32H260.23ZM259.23 70.28H252.134V72.28H259.23V70.28ZM251.134 69.28V38.32H249.134V69.28H251.134ZM296.686 50C296.686 47.8127 296.263 45.9763 295.279 44.6238L293.662 45.8002C294.299 46.677 294.686 48.0327 294.686 50H296.686ZM295.297 44.6487C294.288 43.1699 292.621 42.54 290.594 42.54V44.54C292.216 44.54 293.132 45.0248 293.644 45.7753L295.297 44.6487ZM290.594 42.54C289.237 42.54 288 42.8239 286.917 43.4258L287.888 45.1742C288.629 44.7628 289.52 44.54 290.594 44.54V42.54ZM286.917 43.4258C285.827 44.0311 284.983 44.9113 284.389 46.0383L286.159 46.9697C286.579 46.1714 287.154 45.5822 287.888 45.1742L286.917 43.4258ZM284.389 46.0382C283.79 47.1768 283.514 48.5106 283.514 50H285.514C285.514 48.7534 285.745 47.7565 286.159 46.9697L284.389 46.0382ZM283.514 50V69.28H285.514V50H283.514ZM282.514 70.28H274.962V72.28H282.514V70.28ZM273.962 69.28V38.32H271.962V69.28H273.962ZM274.962 37.32H282.514V35.32H274.962V37.32ZM283.514 38.32V41.564H285.514V38.32H283.514ZM285.399 42.0297C286.336 40.2504 287.585 38.8939 289.144 37.9308L288.093 36.2292C286.207 37.3941 284.72 39.027 283.629 41.0982L285.399 42.0297ZM289.133 37.9375C290.716 36.9874 292.707 36.484 295.154 36.484V34.484C292.434 34.484 290.067 35.0446 288.104 36.2225L289.133 37.9375ZM295.154 36.484C299.347 36.484 302.176 37.603 303.892 39.6267L305.417 38.3333C303.181 35.6956 299.676 34.484 295.154 34.484V36.484ZM303.892 39.6267C305.665 41.7188 306.618 44.7266 306.618 48.784H308.618C308.618 44.4307 307.595 40.9025 305.417 38.3333L303.892 39.6267ZM306.618 48.784V69.28H308.618V48.784H306.618ZM305.618 70.28H297.686V72.28H305.618V70.28ZM296.686 69.28V50H294.686V69.28H296.686ZM320.881 13H327.901V11H320.881V13ZM328.901 14V69.28H330.901V14H328.901ZM327.901 70.28H320.881V72.28H327.901V70.28ZM319.881 69.28V14H317.881V69.28H319.881ZM343.401 37.32H355.358V35.32H343.401V37.32ZM354.942 36.2881L341.998 48.7719L343.387 50.2114L356.33 37.7277L354.942 36.2881ZM341.742 52.8106L356.567 71.2559L358.126 70.003L343.301 51.5577L341.742 52.8106ZM357.035 70.28H345.292V72.28H357.035V70.28ZM344.516 69.9117L329.558 51.5543L328.008 52.8176L342.966 71.175L344.516 69.9117ZM329.639 50.2029L342.706 37.6002L341.318 36.1607L328.251 48.7633L329.639 50.2029ZM212.758 42.4159C213.751 40.6963 214.997 39.3236 216.492 38.2801L215.348 36.6399C213.595 37.8628 212.155 39.4607 211.026 41.4157L212.758 42.4159ZM210.892 38.32V41.9158H212.892V38.32H210.892ZM175.654 56.3922L183.022 37.949L181.164 37.2071L173.797 55.6503L175.654 56.3922ZM165.605 37.9456L173.056 56.3971L174.911 55.6483L167.46 37.1967L165.605 37.9456ZM210.892 41.9158V65.6891H212.892V41.9158H210.892ZM210.892 65.6891V86H212.892V65.6891H210.892ZM216.505 69.4048C215.003 68.3222 213.754 66.9227 212.759 65.191L211.025 66.1873C212.152 68.1494 213.589 69.7678 215.335 71.0272L216.505 69.4048ZM329.558 51.5543C329.266 51.195 329.109 50.9991 329.016 50.8493C328.938 50.7237 328.983 50.75 328.977 50.8413L326.981 50.7216C326.952 51.2022 327.123 51.5923 327.315 51.9025C327.493 52.1883 327.749 52.5001 328.008 52.8176L329.558 51.5543ZM328.251 48.7633C327.956 49.0476 327.664 49.3265 327.454 49.5892C327.226 49.8742 327.01 50.241 326.981 50.7216L328.977 50.8413C328.972 50.9326 328.924 50.9534 329.016 50.838C329.126 50.7003 329.306 50.5246 329.639 50.2029L328.251 48.7633ZM345.292 70.28C345.041 70.28 344.916 70.2792 344.825 70.2715C344.754 70.2654 344.773 70.2594 344.816 70.28L343.958 72.0865C344.413 72.3027 344.919 72.28 345.292 72.28V70.28ZM342.966 71.175C343.201 71.4636 343.503 71.8703 343.958 72.0865L344.816 70.28C344.86 70.3006 344.867 70.3193 344.817 70.2677C344.754 70.2026 344.674 70.1055 344.516 69.9117L342.966 71.175ZM356.567 71.2559C356.626 71.3295 356.667 71.3803 356.699 71.4226C356.733 71.4666 356.738 71.4773 356.733 71.4686C356.731 71.4647 356.685 71.3896 356.661 71.2649C356.632 71.1148 356.64 70.923 356.73 70.7343L358.534 71.5986C358.789 71.0675 358.546 70.605 358.457 70.4538C358.361 70.291 358.218 70.1176 358.126 70.003L356.567 71.2559ZM357.035 72.28C357.182 72.28 357.406 72.2826 357.593 72.2553C357.767 72.23 358.28 72.1298 358.534 71.5986L356.73 70.7343C356.821 70.5455 356.965 70.4188 357.1 70.3475C357.213 70.2883 357.3 70.2769 357.305 70.2763C357.315 70.2748 357.303 70.2771 357.247 70.2786C357.194 70.2799 357.129 70.28 357.035 70.28V72.28ZM341.998 48.7719C341.705 49.0544 341.415 49.3317 341.206 49.593C340.979 49.8766 340.763 50.2413 340.733 50.7192L342.729 50.8456C342.723 50.9363 342.676 50.9568 342.767 50.8424C342.877 50.7057 343.055 50.5313 343.387 50.2114L341.998 48.7719ZM343.301 51.5577C343.013 51.1986 342.858 51.0031 342.767 50.8536C342.69 50.7286 342.735 50.7549 342.729 50.8456L340.733 50.7192C340.703 51.1971 340.871 51.5861 341.06 51.896C341.234 52.1816 341.487 52.4934 341.742 52.8106L343.301 51.5577ZM355.358 37.32C355.467 37.32 355.546 37.3201 355.61 37.3217C355.677 37.3233 355.7 37.3261 355.698 37.3259C355.696 37.3256 355.677 37.3228 355.647 37.3146C355.617 37.3065 355.566 37.2899 355.504 37.2573C355.441 37.2239 355.363 37.1719 355.288 37.0933C355.212 37.0129 355.152 36.9193 355.112 36.8195L356.967 36.0708C356.721 35.463 356.13 35.3669 355.977 35.3454C355.779 35.3176 355.535 35.32 355.358 35.32V37.32ZM356.33 37.7277C356.457 37.605 356.634 37.4377 356.758 37.2803C356.853 37.1582 357.212 36.6787 356.967 36.0708L355.112 36.8195C355.072 36.7196 355.05 36.6109 355.049 36.4998C355.048 36.3913 355.068 36.3001 355.09 36.2319C355.112 36.1657 355.138 36.1182 355.153 36.0918C355.169 36.0652 355.181 36.0499 355.182 36.0478C355.183 36.0467 355.169 36.0642 355.122 36.112C355.077 36.1581 355.02 36.2126 354.942 36.2881L356.33 37.7277ZM343.401 35.32C343.081 35.32 342.65 35.3031 342.248 35.4654L342.997 37.32C342.959 37.3353 342.943 37.3308 343.004 37.3263C343.08 37.3206 343.187 37.32 343.401 37.32V35.32ZM342.706 37.6002C342.86 37.4519 342.937 37.3785 342.996 37.3294C343.043 37.2906 343.035 37.3047 342.997 37.32L342.248 35.4654C341.846 35.6277 341.548 35.939 341.318 36.1607L342.706 37.6002ZM320.881 70.28C320.382 70.28 320.107 70.2779 319.917 70.2523C319.756 70.2306 319.811 70.2097 319.881 70.28L318.467 71.6942C318.83 72.0574 319.268 72.183 319.651 72.2345C320.005 72.2821 320.438 72.28 320.881 72.28V70.28ZM317.881 69.28C317.881 69.7231 317.879 70.1561 317.927 70.5105C317.978 70.8937 318.104 71.331 318.467 71.6942L319.881 70.28C319.952 70.3503 319.931 70.4054 319.909 70.244C319.883 70.0538 319.881 69.7797 319.881 69.28H317.881ZM328.901 69.28C328.901 69.7797 328.899 70.0538 328.874 70.244C328.852 70.4054 328.831 70.3503 328.901 70.28L330.315 71.6942C330.679 71.331 330.804 70.8937 330.856 70.5105C330.903 70.1561 330.901 69.7231 330.901 69.28H328.901ZM327.901 72.28C328.344 72.28 328.777 72.2821 329.132 72.2345C329.515 72.183 329.952 72.0574 330.315 71.6942L328.901 70.28C328.972 70.2097 329.027 70.2306 328.865 70.2523C328.675 70.2779 328.401 70.28 327.901 70.28V72.28ZM327.901 13C328.401 13 328.675 13.0021 328.865 13.0277C329.027 13.0494 328.972 13.0703 328.901 13L330.315 11.5858C329.952 11.2226 329.515 11.0971 329.132 11.0455C328.777 10.9979 328.344 11 327.901 11V13ZM330.901 14C330.901 13.5569 330.903 13.1239 330.856 12.7695C330.804 12.3863 330.679 11.949 330.315 11.5858L328.901 13C328.831 12.9297 328.852 12.8746 328.874 13.036C328.899 13.2262 328.901 13.5003 328.901 14H330.901ZM320.881 11C320.438 11 320.005 10.9979 319.651 11.0455C319.268 11.0971 318.83 11.2226 318.467 11.5858L319.881 13C319.811 13.0703 319.756 13.0494 319.917 13.0277C320.107 13.0021 320.382 13 320.881 13V11ZM319.881 14C319.881 13.5003 319.883 13.2262 319.909 13.036C319.931 12.8746 319.952 12.9297 319.881 13L318.467 11.5858C318.104 11.949 317.978 12.3863 317.927 12.7695C317.879 13.1239 317.881 13.5569 317.881 14H319.881ZM297.686 70.28C297.187 70.28 296.913 70.2779 296.722 70.2523C296.561 70.2306 296.616 70.2097 296.686 70.28L295.272 71.6942C295.635 72.0574 296.073 72.183 296.456 72.2345C296.81 72.2821 297.243 72.28 297.686 72.28V70.28ZM294.686 69.28C294.686 69.7231 294.684 70.1561 294.732 70.5105C294.783 70.8937 294.909 71.331 295.272 71.6942L296.686 70.28C296.757 70.3503 296.736 70.4055 296.714 70.244C296.689 70.0538 296.686 69.7797 296.686 69.28H294.686ZM306.618 69.28C306.618 69.7797 306.616 70.0538 306.591 70.244C306.569 70.4054 306.548 70.3503 306.618 70.28L308.033 71.6942C308.396 71.331 308.521 70.8937 308.573 70.5105C308.621 70.1561 308.618 69.7231 308.618 69.28H306.618ZM305.618 72.28C306.062 72.28 306.494 72.2821 306.849 72.2345C307.232 72.183 307.669 72.0574 308.033 71.6942L306.618 70.28C306.689 70.2097 306.744 70.2306 306.582 70.2523C306.392 70.2779 306.118 70.28 305.618 70.28V72.28ZM209.892 37.32C210.392 37.32 210.666 37.3221 210.856 37.3477C211.018 37.3694 210.963 37.3903 210.892 37.32L212.306 35.9058C211.943 35.5426 211.506 35.417 211.123 35.3655C210.768 35.3179 210.335 35.32 209.892 35.32V37.32ZM212.892 38.32C212.892 37.8769 212.894 37.4439 212.847 37.0895C212.795 36.7063 212.67 36.269 212.306 35.9058L210.892 37.32C210.822 37.2497 210.843 37.1946 210.865 37.356C210.89 37.5462 210.892 37.8203 210.892 38.32H212.892ZM201.416 38.32C201.416 37.8203 201.418 37.5462 201.444 37.356C201.466 37.1945 201.487 37.2497 201.416 37.32L200.002 35.9058C199.639 36.269 199.513 36.7063 199.462 37.0895C199.414 37.4439 199.416 37.8769 199.416 38.32H201.416ZM202.416 35.32C201.973 35.32 201.54 35.3179 201.186 35.3655C200.803 35.417 200.365 35.5426 200.002 35.9058L201.416 37.32C201.346 37.3903 201.291 37.3694 201.452 37.3477C201.642 37.3221 201.917 37.32 202.416 37.32V35.32ZM282.514 37.32C283.014 37.32 283.288 37.3221 283.478 37.3477C283.64 37.3694 283.585 37.3903 283.514 37.32L284.929 35.9058C284.565 35.5426 284.128 35.417 283.745 35.3655C283.39 35.3179 282.958 35.32 282.514 35.32V37.32ZM285.514 38.32C285.514 37.8769 285.517 37.4439 285.469 37.0895C285.417 36.7063 285.292 36.269 284.929 35.9058L283.514 37.32C283.444 37.2497 283.465 37.1946 283.487 37.356C283.512 37.5462 283.514 37.8203 283.514 38.32H285.514ZM202.416 87C201.917 87 201.642 86.9979 201.452 86.9723C201.291 86.9506 201.346 86.9297 201.416 87L200.002 88.4142C200.365 88.7774 200.803 88.903 201.186 88.9545C201.54 89.0021 201.973 89 202.416 89V87ZM199.416 86C199.416 86.4431 199.414 86.8761 199.462 87.2305C199.513 87.6137 199.639 88.051 200.002 88.4142L201.416 87C201.487 87.0703 201.466 87.1255 201.444 86.964C201.418 86.7738 201.416 86.4997 201.416 86H199.416ZM273.962 38.32C273.962 37.8203 273.965 37.5462 273.99 37.356C274.012 37.1945 274.033 37.2497 273.962 37.32L272.548 35.9058C272.185 36.269 272.059 36.7063 272.008 37.0895C271.96 37.4439 271.962 37.8769 271.962 38.32H273.962ZM274.962 35.32C274.519 35.32 274.086 35.3179 273.732 35.3655C273.349 35.417 272.911 35.5426 272.548 35.9058L273.962 37.32C273.892 37.3903 273.837 37.3694 273.998 37.3477C274.189 37.3221 274.463 37.32 274.962 37.32V35.32ZM209.892 89C210.335 89 210.768 89.0021 211.123 88.9545C211.506 88.903 211.943 88.7774 212.306 88.4142L210.892 87C210.963 86.9297 211.018 86.9506 210.856 86.9723C210.666 86.9979 210.392 87 209.892 87V89ZM210.892 86C210.892 86.4997 210.89 86.7738 210.865 86.964C210.843 87.1254 210.822 87.0703 210.892 87L212.306 88.4142C212.67 88.051 212.795 87.6137 212.847 87.2305C212.894 86.8761 212.892 86.4431 212.892 86H210.892ZM274.962 70.28C274.463 70.28 274.189 70.2779 273.998 70.2523C273.837 70.2306 273.892 70.2097 273.962 70.28L272.548 71.6942C272.911 72.0574 273.349 72.183 273.732 72.2345C274.086 72.2821 274.519 72.28 274.962 72.28V70.28ZM271.962 69.28C271.962 69.7231 271.96 70.1561 272.008 70.5105C272.059 70.8937 272.185 71.331 272.548 71.6942L273.962 70.28C274.033 70.3503 274.012 70.4055 273.99 70.244C273.965 70.0538 273.962 69.7797 273.962 69.28H271.962ZM183.95 35.32C183.644 35.32 183.334 35.3186 183.071 35.3475C182.784 35.3791 182.461 35.4541 182.151 35.6641L183.273 37.32C183.217 37.358 183.185 37.347 183.289 37.3355C183.418 37.3214 183.6 37.32 183.95 37.32V35.32ZM183.022 37.949C183.151 37.624 183.22 37.4555 183.281 37.3413C183.33 37.2489 183.329 37.282 183.273 37.32L182.151 35.6641C181.841 35.8742 181.652 36.1457 181.516 36.401C181.391 36.6344 181.278 36.9229 181.164 37.2071L183.022 37.949ZM283.514 69.28C283.514 69.7797 283.512 70.0538 283.487 70.244C283.465 70.4054 283.444 70.3503 283.514 70.28L284.929 71.6942C285.292 71.331 285.417 70.8937 285.469 70.5105C285.517 70.1561 285.514 69.7231 285.514 69.28H283.514ZM282.514 72.28C282.958 72.28 283.39 72.2821 283.745 72.2345C284.128 72.183 284.565 72.0574 284.929 71.6942L283.514 70.28C283.585 70.2097 283.64 70.2306 283.478 70.2523C283.288 70.2779 283.014 70.28 282.514 70.28V72.28ZM173.797 55.6503C173.756 55.7518 173.727 55.8251 173.701 55.8849C173.675 55.947 173.664 55.9669 173.664 55.966C173.666 55.9638 173.675 55.9471 173.694 55.9225C173.712 55.8981 173.747 55.8567 173.8 55.8114C173.854 55.7649 173.932 55.7121 174.033 55.6717C174.136 55.6303 174.246 55.6097 174.354 55.6095L174.357 57.6095C175.015 57.6083 175.324 57.0926 175.401 56.9587C175.5 56.7849 175.588 56.5573 175.654 56.3922L173.797 55.6503ZM173.056 56.3971C173.123 56.5619 173.212 56.7891 173.312 56.9626C173.389 57.0962 173.7 57.6108 174.357 57.6095L174.354 55.6095C174.462 55.6093 174.571 55.6295 174.675 55.6705C174.776 55.7105 174.853 55.763 174.908 55.8094C174.961 55.8544 174.996 55.8957 175.015 55.92C175.033 55.9445 175.043 55.9612 175.044 55.9634C175.045 55.9643 175.034 55.9445 175.007 55.8825C174.981 55.8227 174.951 55.7496 174.911 55.6483L173.056 56.3971ZM164.678 37.32C165.027 37.32 165.208 37.3214 165.336 37.3354C165.44 37.3468 165.409 37.3577 165.353 37.32L166.471 35.662C166.162 35.4533 165.841 35.3787 165.554 35.3473C165.292 35.3186 164.983 35.32 164.678 35.32V37.32ZM167.46 37.1967C167.346 36.914 167.231 36.627 167.107 36.3947C166.97 36.1408 166.781 35.8708 166.471 35.662L165.353 37.32C165.297 37.2823 165.295 37.2493 165.345 37.3411C165.406 37.4547 165.475 37.6222 165.605 37.9456L167.46 37.1967ZM155.121 37.6051C155.029 37.4092 154.956 37.2541 154.898 37.1204C154.838 36.9852 154.806 36.899 154.789 36.8423C154.771 36.7837 154.783 36.7984 154.782 36.8572C154.78 36.9337 154.756 37.0371 154.694 37.1343L153.006 36.0626C152.685 36.5675 152.774 37.0879 152.874 37.4189C152.969 37.734 153.145 38.102 153.311 38.4565L155.121 37.6051ZM155.302 35.32C154.91 35.32 154.502 35.3173 154.177 35.3656C153.835 35.4164 153.326 35.5577 153.006 36.0626L154.694 37.1343C154.633 37.2316 154.549 37.2968 154.481 37.3311C154.428 37.3575 154.41 37.353 154.47 37.344C154.529 37.3353 154.621 37.3279 154.768 37.324C154.914 37.3201 155.086 37.32 155.302 37.32V35.32ZM169.09 69.6981C169.232 69.3717 169.444 68.9373 169.438 68.455L167.438 68.4838C167.437 68.4381 167.449 68.4236 167.427 68.4883C167.399 68.5699 167.352 68.6801 167.257 68.8991L169.09 69.6981ZM167.245 68.0739C167.347 68.29 167.397 68.3988 167.427 68.4796C167.451 68.5436 167.438 68.5295 167.438 68.4838L169.438 68.455C169.431 67.9728 169.206 67.5446 169.055 67.2225L167.245 68.0739ZM160.634 87C160.561 87 160.516 86.9999 160.479 86.9989C160.441 86.9979 160.443 86.9965 160.463 86.9995C160.482 87.0023 160.564 87.0151 160.667 87.0666C160.785 87.1255 160.907 87.2226 160.998 87.3616L159.325 88.4575C159.586 88.8568 159.985 88.9504 160.17 88.9779C160.337 89.0026 160.529 89 160.634 89V87ZM159.351 87.0407C159.309 87.1367 159.23 87.3119 159.186 87.4748C159.137 87.6558 159.063 88.0582 159.325 88.4575L160.998 87.3616C161.089 87.5007 161.13 87.6508 161.136 87.783C161.142 87.8983 161.121 87.9784 161.116 87.9966C161.111 88.0166 161.109 88.0173 161.123 87.9822C161.137 87.9484 161.155 87.9066 161.184 87.8397L159.351 87.0407ZM171.187 86.4036C171.05 86.7126 170.979 86.872 170.917 86.9799C170.866 87.0669 170.869 87.0356 170.924 87L172.016 88.6755C172.319 88.4776 172.51 88.2205 172.65 87.9775C172.778 87.7555 172.897 87.4808 173.017 87.2109L171.187 86.4036ZM170.272 89C170.567 89 170.866 89.0013 171.121 88.974C171.4 88.9442 171.712 88.8734 172.016 88.6755L170.924 87C170.978 86.9644 171.008 86.9747 170.908 86.9854C170.784 86.9987 170.609 87 170.272 87V89ZM194.547 38.408C194.701 38.0584 194.865 37.6932 194.951 37.3808C195.042 37.0507 195.116 36.5384 194.795 36.0463L193.12 37.1384C193.058 37.044 193.033 36.9432 193.03 36.8678C193.027 36.8094 193.039 36.7938 193.023 36.8504C193.008 36.9052 192.979 36.9895 192.924 37.1226C192.87 37.2543 192.803 37.4071 192.717 37.6007L194.547 38.408ZM192.534 37.32C192.746 37.32 192.913 37.3201 193.055 37.3239C193.199 37.3278 193.288 37.3349 193.344 37.3432C193.402 37.3519 193.383 37.356 193.331 37.3299C193.264 37.2963 193.181 37.2328 193.12 37.1384L194.795 36.0463C194.475 35.5542 193.976 35.415 193.637 35.3648C193.317 35.3174 192.916 35.32 192.534 35.32V37.32ZM128.411 70.28C127.911 70.28 127.637 70.2779 127.447 70.2523C127.285 70.2306 127.34 70.2097 127.411 70.28L125.996 71.6942C126.36 72.0574 126.797 72.183 127.18 72.2345C127.535 72.2821 127.968 72.28 128.411 72.28V70.28ZM125.411 69.28C125.411 69.7231 125.409 70.1561 125.456 70.5105C125.508 70.8937 125.633 71.331 125.996 71.6942L127.411 70.28C127.481 70.3503 127.46 70.4054 127.438 70.244C127.413 70.0538 127.411 69.7797 127.411 69.28H125.411ZM260.23 69.28C260.23 69.7797 260.228 70.0538 260.203 70.244C260.181 70.4055 260.16 70.3503 260.23 70.28L261.645 71.6942C262.008 71.331 262.133 70.8937 262.185 70.5105C262.233 70.1561 262.23 69.7231 262.23 69.28H260.23ZM259.23 72.28C259.674 72.28 260.107 72.2821 260.461 72.2345C260.844 72.183 261.281 72.0574 261.645 71.6942L260.23 70.28C260.301 70.2097 260.356 70.2306 260.194 70.2523C260.004 70.2779 259.73 70.28 259.23 70.28V72.28ZM252.134 70.28C251.635 70.28 251.361 70.2779 251.17 70.2523C251.009 70.2306 251.064 70.2097 251.134 70.28L249.72 71.6942C250.083 72.0574 250.521 72.183 250.904 72.2345C251.258 72.2821 251.691 72.28 252.134 72.28V70.28ZM249.134 69.28C249.134 69.7231 249.132 70.1561 249.18 70.5105C249.232 70.8937 249.357 71.331 249.72 71.6942L251.134 70.28C251.205 70.3503 251.184 70.4054 251.162 70.244C251.137 70.0538 251.134 69.7797 251.134 69.28H249.134ZM127.411 31.556C127.411 31.1129 127.413 30.6799 127.365 30.3255C127.314 29.9423 127.188 29.505 126.825 29.1418L125.411 30.556C125.34 30.4857 125.361 30.4305 125.383 30.592C125.409 30.7822 125.411 31.0563 125.411 31.556H127.411ZM124.411 30.556C124.91 30.556 125.184 30.5581 125.375 30.5837C125.536 30.6054 125.481 30.6263 125.411 30.556L126.825 29.1418C126.462 28.7786 126.024 28.653 125.641 28.6015C125.287 28.5539 124.854 28.556 124.411 28.556V30.556ZM138.255 69.28C138.255 69.7797 138.253 70.0538 138.227 70.244C138.205 70.4054 138.184 70.3503 138.255 70.28L139.669 71.6942C140.032 71.331 140.158 70.8937 140.209 70.5105C140.257 70.1561 140.255 69.7231 140.255 69.28H138.255ZM137.255 72.28C137.698 72.28 138.131 72.2821 138.485 72.2345C138.868 72.183 139.306 72.0574 139.669 71.6942L138.255 70.28C138.325 70.2097 138.38 70.2306 138.219 70.2523C138.028 70.2779 137.754 70.28 137.255 70.28V72.28ZM259.23 37.32C259.73 37.32 260.004 37.3221 260.194 37.3477C260.356 37.3694 260.301 37.3903 260.23 37.32L261.645 35.9058C261.281 35.5426 260.844 35.417 260.461 35.3655C260.107 35.3179 259.674 35.32 259.23 35.32V37.32ZM262.23 38.32C262.23 37.8769 262.233 37.4439 262.185 37.0895C262.133 36.7063 262.008 36.269 261.645 35.9058L260.23 37.32C260.16 37.2497 260.181 37.1945 260.203 37.356C260.228 37.5462 260.23 37.8203 260.23 38.32H262.23ZM252.134 35.32C251.691 35.32 251.258 35.3179 250.904 35.3655C250.521 35.417 250.083 35.5426 249.72 35.9058L251.134 37.32C251.064 37.3903 251.009 37.3694 251.17 37.3477C251.361 37.3221 251.635 37.32 252.134 37.32V35.32ZM251.134 38.32C251.134 37.8203 251.137 37.5462 251.162 37.356C251.184 37.1945 251.205 37.2497 251.134 37.32L249.72 35.9058C249.357 36.269 249.232 36.7063 249.18 37.0895C249.132 37.4439 249.134 37.8769 249.134 38.32H251.134ZM141.255 28.556C140.812 28.556 140.379 28.5539 140.024 28.6015C139.641 28.653 139.204 28.7786 138.84 29.1418L140.255 30.556C140.184 30.6263 140.129 30.6054 140.291 30.5837C140.481 30.5581 140.755 30.556 141.255 30.556V28.556ZM140.255 31.556C140.255 31.0563 140.257 30.7822 140.282 30.592C140.304 30.4305 140.325 30.4857 140.255 30.556L138.84 29.1418C138.477 29.505 138.352 29.9423 138.3 30.3255C138.253 30.6799 138.255 31.1129 138.255 31.556H140.255ZM152.923 27.556C152.923 28.0557 152.921 28.3298 152.895 28.52C152.873 28.6815 152.852 28.6263 152.923 28.556L154.337 29.9702C154.7 29.607 154.826 29.1697 154.877 28.7865C154.925 28.4321 154.923 27.9991 154.923 27.556H152.923ZM151.923 30.556C152.366 30.556 152.799 30.5581 153.153 30.5105C153.536 30.459 153.974 30.3334 154.337 29.9702L152.923 28.556C152.993 28.4857 153.048 28.5066 152.887 28.5283C152.696 28.5539 152.422 28.556 151.923 28.556V30.556ZM151.923 19.08C152.422 19.08 152.696 19.0821 152.887 19.1077C153.048 19.1294 152.993 19.1503 152.923 19.08L154.337 17.6658C153.974 17.3026 153.536 17.177 153.153 17.1255C152.799 17.0779 152.366 17.08 151.923 17.08V19.08ZM154.923 20.08C154.923 19.6369 154.925 19.2039 154.877 18.8495C154.826 18.4663 154.7 18.029 154.337 17.6658L152.923 19.08C152.852 19.0097 152.873 18.9545 152.895 19.116C152.921 19.3062 152.923 19.5803 152.923 20.08H154.923ZM112.819 20.08C112.819 19.5803 112.821 19.3062 112.846 19.116C112.868 18.9545 112.889 19.0097 112.819 19.08L111.404 17.6658C111.041 18.029 110.916 18.4663 110.864 18.8495C110.817 19.2039 110.819 19.6369 110.819 20.08H112.819ZM113.819 17.08C113.376 17.08 112.943 17.0779 112.588 17.1255C112.205 17.177 111.768 17.3026 111.404 17.6658L112.819 19.08C112.748 19.1503 112.693 19.1294 112.855 19.1077C113.045 19.0821 113.319 19.08 113.819 19.08V17.08ZM110.819 27.556C110.819 27.9991 110.817 28.4321 110.864 28.7865C110.916 29.1697 111.041 29.607 111.404 29.9702L112.819 28.556C112.889 28.6263 112.868 28.6815 112.846 28.52C112.821 28.3298 112.819 28.0557 112.819 27.556H110.819ZM113.819 28.556C113.319 28.556 113.045 28.5539 112.855 28.5283C112.693 28.5066 112.748 28.4857 112.819 28.556L111.404 29.9702C111.768 30.3334 112.205 30.459 112.588 30.5105C112.943 30.5581 113.376 30.556 113.819 30.556V28.556Z" fill="url(#paint7_linear_8622_1575)" fill-opacity="0.22" mask="url(#path-1-inside-1_8622_1575)"/>
    <defs>
        <filter id="filter0_iiii_8622_1575" x="-2.94775" y="-3" width="363.594" height="106" filterUnits="userSpaceOnUse" color-interpolation-filters="sRGB">
            <feFlood flood-opacity="0" result="BackgroundImageFix"/>
            <feBlend mode="normal" in="SourceGraphic" in2="BackgroundImageFix" result="shape"/>
            <feColorMatrix in="SourceAlpha" type="matrix" values="0 0 0 0 0 0 0 0 0 0 0 0 0 0 0 0 0 0 127 0" result="hardAlpha"/>
            <feOffset dx="-3" dy="-3"/>
            <feGaussianBlur stdDeviation="1.5"/>
            <feComposite in2="hardAlpha" operator="arithmetic" k2="-1" k3="1"/>
            <feColorMatrix type="matrix" values="0 0 0 0 0.533333 0 0 0 0 0.0666667 0 0 0 0 0.423529 0 0 0 0.2 0"/>
            <feBlend mode="normal" in2="shape" result="effect1_innerShadow_8622_1575"/>
            <feColorMatrix in="SourceAlpha" type="matrix" values="0 0 0 0 0 0 0 0 0 0 0 0 0 0 0 0 0 0 127 0" result="hardAlpha"/>
            <feOffset dx="3" dy="3"/>
            <feGaussianBlur stdDeviation="1.5"/>
            <feComposite in2="hardAlpha" operator="arithmetic" k2="-1" k3="1"/>
            <feColorMatrix type="matrix" values="0 0 0 0 0.533333 0 0 0 0 0.0666667 0 0 0 0 0.423529 0 0 0 0.2 0"/>
            <feBlend mode="normal" in2="effect1_innerShadow_8622_1575" result="effect2_innerShadow_8622_1575"/>
            <feColorMatrix in="SourceAlpha" type="matrix" values="0 0 0 0 0 0 0 0 0 0 0 0 0 0 0 0 0 0 127 0" result="hardAlpha"/>
            <feOffset dx="-1" dy="-1"/>
            <feGaussianBlur stdDeviation="0.5"/>
            <feComposite in2="hardAlpha" operator="arithmetic" k2="-1" k3="1"/>
            <feColorMatrix type="matrix" values="0 0 0 0 0.533333 0 0 0 0 0.0666667 0 0 0 0 0.423529 0 0 0 0.2 0"/>
            <feBlend mode="normal" in2="effect2_innerShadow_8622_1575" result="effect3_innerShadow_8622_1575"/>
            <feColorMatrix in="SourceAlpha" type="matrix" values="0 0 0 0 0 0 0 0 0 0 0 0 0 0 0 0 0 0 127 0" result="hardAlpha"/>
            <feOffset dx="1" dy="1"/>
            <feGaussianBlur stdDeviation="0.5"/>
            <feComposite in2="hardAlpha" operator="arithmetic" k2="-1" k3="1"/>
            <feColorMatrix type="matrix" values="0 0 0 0 0.533333 0 0 0 0 0.0666667 0 0 0 0 0.423529 0 0 0 0.2 0"/>
            <feBlend mode="normal" in2="effect3_innerShadow_8622_1575" result="effect4_innerShadow_8622_1575"/>
        </filter>
        <linearGradient id="paint0_linear_8622_1575" x1="3.1505" y1="2.20269e-06" x2="38.4804" y2="166.904" gradientUnits="userSpaceOnUse">
            <stop stop-color="#B4188A"/>
            <stop offset="1" stop-color="#DE21A6"/>
        </linearGradient>
        <linearGradient id="paint1_linear_8622_1575" x1="3.1505" y1="2.20269e-06" x2="38.4804" y2="166.904" gradientUnits="userSpaceOnUse">
            <stop stop-color="#B4188A"/>
            <stop offset="1" stop-color="#DE21A6"/>
        </linearGradient>
        <linearGradient id="paint2_linear_8622_1575" x1="3.1505" y1="2.20269e-06" x2="38.4804" y2="166.904" gradientUnits="userSpaceOnUse">
            <stop stop-color="#B4188A"/>
            <stop offset="1" stop-color="#DE21A6"/>
        </linearGradient>
        <linearGradient id="paint3_linear_8622_1575" x1="3.1505" y1="2.20269e-06" x2="38.4804" y2="166.904" gradientUnits="userSpaceOnUse">
            <stop stop-color="#B4188A"/>
            <stop offset="1" stop-color="#DE21A6"/>
        </linearGradient>
        <linearGradient id="paint4_linear_8622_1575" x1="3.1505" y1="2.20269e-06" x2="38.4804" y2="166.904" gradientUnits="userSpaceOnUse">
            <stop stop-color="#B4188A"/>
            <stop offset="1" stop-color="#DE21A6"/>
        </linearGradient>
        <linearGradient id="paint5_linear_8622_1575" x1="3.1505" y1="2.20269e-06" x2="38.4804" y2="166.904" gradientUnits="userSpaceOnUse">
            <stop stop-color="#B4188A"/>
            <stop offset="1" stop-color="#DE21A6"/>
        </linearGradient>
        <linearGradient id="paint6_linear_8622_1575" x1="3.1505" y1="2.20269e-06" x2="38.4804" y2="166.904" gradientUnits="userSpaceOnUse">
            <stop stop-color="#B4188A"/>
            <stop offset="1" stop-color="#DE21A6"/>
        </linearGradient>
        <linearGradient id="paint7_linear_8622_1575" x1="0.0522449" y1="0.283685" x2="36.6581" y2="169.255" gradientUnits="userSpaceOnUse">
            <stop stop-color="#88116C"/>
            <stop offset="1" stop-color="#B4188A"/>
        </linearGradient>
    </defs>
</svg>
